<?xml version="1.0" encoding="UTF-8" standalone="no"?>
<!-- Created with Inkscape (http://www.inkscape.org/) -->
<svg
   xmlns:dc="http://purl.org/dc/elements/1.1/"
   xmlns:cc="http://creativecommons.org/ns#"
   xmlns:rdf="http://www.w3.org/1999/02/22-rdf-syntax-ns#"
   xmlns:svg="http://www.w3.org/2000/svg"
   xmlns="http://www.w3.org/2000/svg"
   xmlns:sodipodi="http://sodipodi.sourceforge.net/DTD/sodipodi-0.dtd"
   xmlns:inkscape="http://www.inkscape.org/namespaces/inkscape"
   id="svg2"
   sodipodi:version="0.32"
   inkscape:version="0.46"
   width="236.25"
   height="151.25"
   xml:space="preserve"
   sodipodi:docname="ENSE3cmjn.svg"
   inkscape:output_extension="org.inkscape.output.svg.inkscape"><metadata
     id="metadata7"><rdf:RDF><cc:Work
         rdf:about=""><dc:format>image/svg+xml</dc:format><dc:type
           rdf:resource="http://purl.org/dc/dcmitype/StillImage" /></cc:Work></rdf:RDF></metadata><defs
     id="defs5"><inkscape:perspective
       sodipodi:type="inkscape:persp3d"
       inkscape:vp_x="0 : 526.18109 : 1"
       inkscape:vp_y="0 : 1000 : 0"
       inkscape:vp_z="744.09448 : 526.18109 : 1"
       inkscape:persp3d-origin="372.04724 : 350.78739 : 1"
       id="perspective9" /><clipPath
       clipPathUnits="userSpaceOnUse"
       id="clipPath19"><path
         d="M 0,1203.69 L 0,0 L 1884.15,0 L 1884.15,1203.69 L 0,1203.69 z"
         id="path21" /></clipPath></defs><sodipodi:namedview
     inkscape:window-height="726"
     inkscape:window-width="645"
     inkscape:pageshadow="2"
     inkscape:pageopacity="0.0"
     guidetolerance="10.0"
     gridtolerance="10.0"
     objecttolerance="10.0"
     borderopacity="1.0"
     bordercolor="#666666"
     pagecolor="#ffffff"
     id="base"
     showgrid="false"
     inkscape:zoom="2.357672"
     inkscape:cx="118.125"
     inkscape:cy="75.625"
     inkscape:window-x="369"
     inkscape:window-y="25"
     inkscape:current-layer="g11" /><g
     id="g11"
     inkscape:groupmode="layer"
     inkscape:label="ENSE3cmjn"
     transform="matrix(1.25,0,0,-1.25,0,151.25)"><g
       id="g13"
       transform="scale(0.1,0.1)"><g
         id="g15"><g
           id="g17"
           clip-path="url(#clipPath19)"><path
             d="M 1491.62,668.438 C 1503.5,539.812 1499.17,410.117 1478.78,282.977 L 1549.76,271.59 C 1571.09,404.668 1575.63,540.41 1563.19,675.047 L 1491.62,668.438"
             style="fill:#04a1e6;fill-opacity:1;fill-rule:nonzero;stroke:none"
             id="path23" /><path
             d="M 1406.1,1053.7 C 1425.71,999.148 1442.48,942.754 1455.92,886.062 L 1525.86,902.645 C 1511.79,961.934 1494.27,1020.95 1473.74,1078.02 L 1406.1,1053.7"
             style="fill:#04a1e6;fill-opacity:1;fill-rule:nonzero;stroke:none"
             id="path25" /><path
             d="M 1097.58,148.582 C 1135.92,253.262 1155.33,363.398 1155.33,475.938 C 1155.33,536.336 1149.64,596.785 1138.42,655.613 L 1198.61,667.098 C 1210.55,604.492 1216.61,540.195 1216.61,475.938 C 1216.61,356.199 1195.92,238.973 1155.14,127.531 L 1097.58,148.582"
             style="fill:#8d188f;fill-opacity:1;fill-rule:nonzero;stroke:none"
             id="path27" /><path
             d="M 1200.72,25.25 C 1264.94,167.211 1297.51,318.848 1297.51,475.938 C 1297.51,513.289 1295.61,550.957 1291.87,587.879 L 1352.83,594.07 C 1356.79,555.098 1358.79,515.359 1358.79,475.938 C 1358.79,310.066 1324.38,149.941 1256.54,0 L 1200.72,25.25"
             style="fill:#c02229;fill-opacity:1;fill-rule:nonzero;stroke:none"
             id="path29" /><path
             d="M 1216.24,890.605 C 1175.74,989.453 1120.94,1081.8 1053.34,1165.07 L 1100.93,1203.69 C 1172.29,1115.75 1230.17,1018.22 1272.94,913.836 L 1216.24,890.605"
             style="fill:#f68712;fill-opacity:1;fill-rule:nonzero;stroke:none"
             id="path31" /><path
             d="M 1680.32,398.914 C 1682.35,424.48 1683.77,450.43 1684.52,476.113 C 1688.54,613.094 1674.33,749.414 1642.24,881.289 L 1701.8,895.781 C 1735.17,758.582 1749.96,616.785 1745.78,474.316 C 1744.99,447.625 1743.53,420.633 1741.43,394.082 L 1680.32,398.914"
             style="fill:#80cc28;fill-opacity:1;fill-rule:nonzero;stroke:none"
             id="path33" /><path
             d="M 1883.73,514.375 L 1822.46,512.996 C 1822.72,500.82 1822.87,488.359 1822.87,475.938 C 1822.87,419.812 1820.02,363.203 1814.39,307.676 C 1809.39,258.348 1802.09,208.711 1792.66,160.16 L 1822.74,154.332 L 1822.74,154.32 L 1822.74,154.332 L 1852.83,148.5 C 1862.59,198.859 1870.18,250.332 1875.35,301.504 C 1881.2,359.07 1884.15,417.754 1884.15,475.938 C 1884.15,488.809 1884,501.738 1883.73,514.375"
             style="fill:#2250a9;fill-opacity:1;fill-rule:nonzero;stroke:none"
             id="path35" /><path
             d="M 98.6914,714.102 C 86.9062,701.648 72.2656,696.414 55.8984,696.414 C 39.7344,696.414 25.7617,702.305 15.0586,712.996 C -0.222656,728.289 0,745.547 0,775.457 C 0,805.379 -0.222656,822.625 15.0586,837.91 C 25.7617,848.613 39.2969,854.5 55.8984,854.5 C 88.8672,854.5 108.086,832.891 112.441,806.238 L 88.6523,806.238 C 84.7188,823.27 73.3594,833.328 55.8984,833.328 C 46.7188,833.328 38.418,829.598 32.9688,823.711 C 25.3242,815.41 23.5742,806.68 23.5742,775.457 C 23.5742,744.227 25.3242,735.281 32.9688,726.973 C 38.418,721.082 46.7188,717.598 55.8984,717.598 C 66.1523,717.598 75.1172,721.523 81.2305,728.504 C 86.9062,735.059 89.082,742.918 89.082,752.957 L 89.082,761.699 L 55.8984,761.699 L 55.8984,781.785 L 112.676,781.785 L 112.676,757.988 C 112.676,737.91 108.965,725.008 98.6914,714.102"
             style="fill:#7b7979;fill-opacity:1;fill-rule:nonzero;stroke:none"
             id="path37" /><path
             d="M 227.52,782.441 C 222.5,787.469 218.574,789.863 210.918,789.863 C 198.926,789.863 188.879,780.262 188.879,764.969 L 188.879,697.715 L 166.602,697.715 L 166.602,808.438 L 188.445,808.438 L 188.445,796.426 C 194.121,804.277 205.48,809.734 217.922,809.734 C 228.613,809.734 236.699,806.902 244.336,799.266 L 227.52,782.441"
             style="fill:#7b7979;fill-opacity:1;fill-rule:nonzero;stroke:none"
             id="path39" /><path
             d="M 340.371,777.207 C 336.875,785.496 329.016,791.18 318.535,791.18 C 308.047,791.18 299.973,785.496 296.477,777.207 C 294.297,772.188 293.855,768.906 293.633,762.129 L 343.438,762.129 C 343.203,768.906 342.551,772.188 340.371,777.207 z M 293.633,746.629 C 293.633,727.637 303.672,715.633 321.816,715.633 C 334.258,715.633 340.801,719.109 348.66,726.973 L 362.859,713.66 C 351.504,702.305 340.801,696.414 321.367,696.414 C 293.633,696.414 271.582,711.043 271.582,753.184 C 271.582,788.992 290.156,809.734 318.535,809.734 C 348.223,809.734 365.48,787.898 365.48,756.465 L 365.48,746.629 L 293.633,746.629"
             style="fill:#7b7979;fill-opacity:1;fill-rule:nonzero;stroke:none"
             id="path41" /><path
             d="M 484.258,697.715 L 484.258,765.184 C 484.258,782.441 474.441,789.863 461.992,789.863 C 449.551,789.863 439.062,782.227 439.062,765.184 L 439.062,697.715 L 416.785,697.715 L 416.785,808.438 L 438.633,808.438 L 438.633,797.293 C 446.27,805.594 456.973,809.734 468.105,809.734 C 479.465,809.734 488.848,806.023 495.41,799.695 C 503.918,791.387 506.543,780.918 506.543,768.477 L 506.543,697.715 L 484.258,697.715"
             style="fill:#7b7979;fill-opacity:1;fill-rule:nonzero;stroke:none"
             id="path43" /><path
             d="M 619.863,783.523 C 615.715,787.684 610.039,789.863 603.484,789.863 C 596.934,789.863 591.484,787.684 587.344,783.523 C 580.566,776.766 579.688,765.184 579.688,753.184 C 579.688,741.18 580.566,729.598 587.344,722.832 C 591.484,718.68 596.934,716.277 603.484,716.277 C 610.039,716.277 615.715,718.68 619.863,722.832 C 626.641,729.598 627.52,741.18 627.52,753.184 C 627.52,765.184 626.641,776.766 619.863,783.523 z M 636.68,709.512 C 629.48,702.09 618.562,696.414 603.484,696.414 C 588.43,696.414 577.727,702.09 570.508,709.512 C 560.039,720.43 557.422,734.402 557.422,753.184 C 557.422,771.746 560.039,785.723 570.508,796.641 C 577.727,804.07 588.43,809.734 603.484,809.734 C 618.562,809.734 629.48,804.07 636.68,796.641 C 647.168,785.723 649.785,771.746 649.785,753.184 C 649.785,734.402 647.168,720.43 636.68,709.512"
             style="fill:#7b7979;fill-opacity:1;fill-rule:nonzero;stroke:none"
             id="path45" /><path
             d="M 747.168,789.863 C 727.09,789.863 724.023,772.832 724.023,753.184 C 724.023,733.535 727.09,716.277 747.168,716.277 C 767.266,716.277 770.098,733.535 770.098,753.184 C 770.098,772.832 767.266,789.863 747.168,789.863 z M 779.922,706.238 C 773.809,700.125 763.984,696.414 752.852,696.414 C 740.84,696.414 731.895,699.473 723.594,709.512 L 723.594,697.715 L 701.758,697.715 L 701.758,853.191 L 724.023,853.191 L 724.023,797.293 C 732.109,806.902 741.277,809.734 753.066,809.734 C 764.199,809.734 773.809,806.023 779.922,799.91 C 791.055,788.777 792.371,770 792.371,753.184 C 792.371,736.367 791.055,717.371 779.922,706.238"
             style="fill:#7b7979;fill-opacity:1;fill-rule:nonzero;stroke:none"
             id="path47" /><path
             d="M 874.043,697.715 C 852.852,697.715 843.691,711.914 843.691,728.289 L 843.691,853.191 L 865.957,853.191 L 865.957,729.598 C 865.957,721.082 869.016,716.719 877.98,716.719 L 887.793,716.719 L 887.793,697.715 L 874.043,697.715"
             style="fill:#7b7979;fill-opacity:1;fill-rule:nonzero;stroke:none"
             id="path49" /><path
             d="M 991.699,777.207 C 988.203,785.496 980.352,791.18 969.863,791.18 C 959.395,791.18 951.309,785.496 947.812,777.207 C 945.625,772.188 945.195,768.906 944.973,762.129 L 994.766,762.129 C 994.543,768.906 993.887,772.188 991.699,777.207 z M 944.973,746.629 C 944.973,727.637 955.02,715.633 973.145,715.633 C 985.586,715.633 992.129,719.109 1000,726.973 L 1014.18,713.66 C 1002.83,702.305 992.129,696.414 972.703,696.414 C 944.973,696.414 922.91,711.043 922.91,753.184 C 922.91,788.992 941.484,809.734 969.863,809.734 C 999.57,809.734 1016.82,787.898 1016.82,756.465 L 1016.82,746.629 L 944.973,746.629"
             style="fill:#7b7979;fill-opacity:1;fill-rule:nonzero;stroke:none"
             id="path51" /><path
             d="M 1140.41,697.715 L 1178.6288,697.715 L 1178.6288,853.192 L 1140.41,853.192 L 1140.41,697.715 z"
             style="fill:#2250a9;fill-opacity:1;fill-rule:nonzero;stroke:none"
             id="path53" /><path
             d="M 1319.89,697.715 L 1270.12,775.887 L 1270.12,697.715 L 1231.89,697.715 L 1231.89,853.191 L 1265.3,853.191 L 1315.09,775.02 L 1315.09,853.191 L 1353.31,853.191 L 1353.31,697.715 L 1319.89,697.715"
             style="fill:#2250a9;fill-opacity:1;fill-rule:nonzero;stroke:none"
             id="path55" /><path
             d="M 1466.43,818.906 L 1444.8,818.906 L 1444.8,787.469 L 1466.43,787.469 C 1476.91,787.469 1483.03,795.105 1483.03,803.184 C 1483.03,811.258 1476.91,818.906 1466.43,818.906 z M 1468.16,753.184 L 1444.8,753.184 L 1444.8,697.715 L 1406.59,697.715 L 1406.59,853.191 L 1468.16,853.191 C 1502.68,853.191 1521.24,828.738 1521.24,803.184 C 1521.24,777.637 1502.68,753.184 1468.16,753.184"
             style="fill:#2250a9;fill-opacity:1;fill-rule:nonzero;stroke:none"
             id="path57" /><path
             d="M 453.633,434.852 C 453.633,423.652 447.949,418.047 436.594,418.047 L 379.562,418.047 C 345.48,418.047 328.445,435.449 328.445,470.293 L 328.445,548.672 C 328.445,560.027 334.141,565.723 345.496,565.723 L 435.684,565.723 C 447.566,565.789 453.516,560.145 453.516,548.789 C 453.438,537.734 447.645,532.09 436.145,531.863 L 362.527,531.973 L 362.527,509.258 L 413.547,509.492 C 425.039,509.336 430.793,503.465 430.793,491.875 C 430.867,480.82 425.227,475.293 413.867,475.293 L 362.527,475.184 L 362.527,469.492 C 362.527,457.91 368.32,452.129 379.91,452.129 L 436.934,452.012 C 448.059,452.012 453.633,446.289 453.633,434.852"
             style="fill:#2152ab;fill-opacity:1;fill-rule:nonzero;stroke:none"
             id="path59" /><path
             d="M 476.316,435.535 L 476.316,548.789 C 476.316,560 481.992,565.605 493.352,565.605 L 550.383,565.723 C 584.465,565.723 601.504,548.301 601.504,513.465 L 601.504,435.086 C 601.504,423.73 595.82,418.047 584.465,418.047 C 573.098,418.047 567.422,423.797 567.422,435.312 L 567.422,514.141 C 567.422,525.809 561.66,531.648 550.156,531.648 L 510.391,531.648 L 510.391,435.535 C 510.391,424.031 504.648,418.27 493.137,418.27 C 481.926,418.27 476.316,424.031 476.316,435.535"
             style="fill:#2152ab;fill-opacity:1;fill-rule:nonzero;stroke:none"
             id="path61" /><path
             d="M 721.199,531.648 L 675.652,531.648 C 664.07,531.648 658.27,527.773 658.27,520.059 C 658.27,512.781 664.102,509.141 675.762,509.141 L 686.785,509.141 C 720.703,508.613 737.629,493.477 737.559,463.699 C 737.41,433.484 720.488,418.348 686.785,418.27 L 640.77,418.387 C 629.797,418.309 624.277,423.535 624.188,434.062 C 624.277,445.879 629.766,451.816 640.664,451.902 L 686.555,451.902 C 697.844,451.902 703.555,455.762 703.711,463.484 C 703.711,470.977 698.105,474.805 686.895,474.949 L 675.879,474.949 C 641.57,474.805 624.441,490.059 624.531,520.73 C 624.309,550.723 641.23,565.723 675.305,565.723 L 720.754,565.605 C 732.109,565.605 737.781,560 737.781,548.789 C 737.551,537.578 732.02,531.863 721.199,531.648"
             style="fill:#2152ab;fill-opacity:1;fill-rule:nonzero;stroke:none"
             id="path63" /><path
             d="M 885.762,434.852 C 885.762,423.652 880.09,418.047 868.73,418.047 L 811.711,418.047 C 777.637,418.047 760.598,435.449 760.598,470.293 L 760.598,548.672 C 760.598,560.027 766.277,565.723 777.637,565.723 L 867.82,565.723 C 879.719,565.789 885.664,560.145 885.664,548.789 C 885.586,537.734 879.785,532.09 868.27,531.863 L 794.68,531.973 L 794.68,509.258 L 845.676,509.492 C 857.188,509.336 862.938,503.465 862.938,491.875 C 863.02,480.82 857.371,475.293 846.016,475.293 L 794.68,475.184 L 794.68,469.492 C 794.68,457.91 800.469,452.129 812.051,452.129 L 869.07,452.012 C 880.203,452.012 885.762,446.289 885.762,434.852"
             style="fill:#2152ab;fill-opacity:1;fill-rule:nonzero;stroke:none"
             id="path65" /><path
             d="M 1013.84,612.715 C 1013.84,624.746 1006.93,631.648 994.895,631.648 L 921.094,631.648 C 914.773,631.68 909.84,629.984 906.445,626.605 C 903.16,623.34 901.492,618.691 901.492,612.793 C 901.57,601.035 908.539,594.18 920.621,593.953 C 920.621,593.953 961.941,594.012 975.945,594.031 C 975.945,588.789 975.945,581.531 975.945,576.27 C 968.176,576.309 939.23,576.434 939.23,576.434 C 927.027,576.27 920.078,569.199 920.078,557.031 C 920.078,556.961 920.078,556.895 920.078,556.836 C 920.078,551.133 921.688,546.609 924.863,543.406 C 928.141,540.117 932.871,538.445 938.926,538.445 C 938.926,538.445 968.191,538.387 975.945,538.367 C 975.945,532.246 975.945,520.301 975.945,520.301 C 975.945,513.582 973.445,511.082 966.719,511.082 C 966.711,511.082 920.117,510.996 920.066,510.996 C 908.207,510.996 901.406,504.051 901.406,491.953 C 901.406,480.039 908.312,473.203 920.344,473.203 L 967.012,473.203 C 997.645,473.203 1013.84,489.715 1013.84,520.965 L 1013.84,543.445 C 1013.79,549.5 1011.91,554.188 1008.54,557.48 C 1011.81,560.633 1013.67,565.293 1013.84,571.297 L 1013.84,612.715"
             style="fill:#2152ab;fill-opacity:1;fill-rule:nonzero;stroke:none"
             id="path67" /></g></g></g></g></svg>