<?xml version="1.0" encoding="UTF-8" standalone="no"?>
<svg
   xmlns:dc="http://purl.org/dc/elements/1.1/"
   xmlns:cc="http://creativecommons.org/ns#"
   xmlns:rdf="http://www.w3.org/1999/02/22-rdf-syntax-ns#"
   xmlns:svg="http://www.w3.org/2000/svg"
   xmlns="http://www.w3.org/2000/svg"
   viewBox="0 0 958.1084 943.91224"
   height="943.91223"
   width="958.1084"
   xml:space="preserve"
   id="svg2"
   version="1.1"><metadata
     id="metadata8"><rdf:RDF><cc:Work
         rdf:about=""><dc:format>image/svg+xml</dc:format><dc:type
           rdf:resource="http://purl.org/dc/dcmitype/StillImage" /><dc:title></dc:title></cc:Work></rdf:RDF></metadata><defs
     id="defs6"><clipPath
       id="clipPath18"
       clipPathUnits="userSpaceOnUse"><path
         id="path16"
         d="M 0,781.069 H 870 V 0 H 0 Z" /></clipPath><clipPath
       id="clipPath298"
       clipPathUnits="userSpaceOnUse"><path
         id="path296"
         d="M 0,781.069 H 870 V 0 H 0 Z" /></clipPath></defs><g
     transform="matrix(1.3333333,0,0,-1.3333333,-98.190017,1005.0286)"
     id="g10"><g
       id="g1257"><g
         id="g12"><g
           id="g14"
           clip-path="url(#clipPath18)"><g
             id="g20"
             transform="translate(435,628.6026)"><path
               d="m 0,0 c 131.123,0 238.067,-106.944 238.067,-238.068 0,-131.123 -106.944,-238.068 -238.067,-238.068 -131.123,0 -238.067,106.945 -238.067,238.068 C -238.067,-106.944 -131.123,0 0,0 m 0,4.691 c 133.707,0 242.759,-109.052 242.759,-242.759 0,-133.707 -109.052,-242.759 -242.759,-242.759 -133.707,0 -242.758,109.052 -242.758,242.759 0,133.707 109.051,242.759 242.758,242.759"
               style="fill:#231f20;fill-opacity:1;fill-rule:evenodd;stroke:none"
               id="path22" /></g><g
             id="g24"
             transform="translate(509.9043,410.8658)"><path
               d="M 0,0 C -4.27,-1.076 -10.207,-2.157 -15.19,-2.681 -10.708,-4.927 -5.06,-7.095 -0.64,-8.569 -0.785,-5.867 -0.605,-2.702 0,0 M -22.24,-1.767 C -12.543,-0.649 -2.553,0.694 6.79,3.399 6.927,2.552 6.653,2.892 6.79,2.044 5.564,1.73 4.415,1.41 3.2,1.091 3.363,-2.124 2.659,-6.002 1.616,-9.218 c 0.731,-0.22 1.338,-0.566 2.089,-0.769 -0.164,-0.629 -0.031,-0.581 -0.195,-1.211 -5.149,1.162 -20.466,6.356 -25.75,9.431"
               style="fill:#231f20;fill-opacity:1;fill-rule:evenodd;stroke:none"
               id="path26" /></g><g
             id="g28"
             transform="translate(487.8398,249.6207)"><path
               d="M 0,0 C 9.468,0.773 17.72,0.72 26.312,-3.81 40.954,-13.052 42.918,-32.888 44.194,-48.611 44.059,-59.863 23.722,-56.438 18.143,-52.16 8.909,-28.319 -6.002,0.138 -36.929,5.557 -36.108,6.705 -36,15.22 -33.64,14.857 -21.674,12.432 -9.613,7.427 0,0 M -32.99,17.229 C -21.762,15.2 -10.534,11.682 0.694,2.845 38.351,6.751 44.87,-18.772 46.943,-48.502 c 0.495,-12.354 -19.646,-15 -31.318,-5.462 -12.432,32.281 -27.782,52.748 -54.077,57.173 0.304,2.55 0.606,5.099 0.91,7.647 1.518,2.124 3.035,4.249 4.552,6.373"
               style="fill:#231f20;fill-opacity:1;fill-rule:evenodd;stroke:none"
               id="path30" /></g><g
             id="g32"
             transform="translate(374.7114,203.3628)"><path
               d="m 0,0 c 22.168,-24.122 37.152,-32.473 71.293,-25.375 0.746,13.895 -5.886,23.71 -14.049,34.402 -20.965,25.22 -53.092,47.884 -84.651,56.4 -2.056,-3.898 -4.193,-7.745 -6.173,-11.681 -8.034,0.038 -15.303,-1.061 -22.793,-4.25 0.071,-2.09 0.143,-4.182 0.216,-6.269 C -34.266,34.491 -15.82,16.943 0,0 m -59.572,51.5 c 0.119,-3.474 0.239,-6.946 0.359,-10.42 C -32.375,30.818 -9.744,7.09 12.287,-18.563 30.79,-32.92 51.749,-34.388 74.085,-28.623 81.493,6.222 16.074,58.011 -29.032,69.105 -31.068,65.033 -33.463,60.961 -35.5,56.889 -43.524,57.008 -51.548,55.212 -59.572,51.5"
               style="fill:#231f20;fill-opacity:1;fill-rule:evenodd;stroke:none"
               id="path34" /></g><g
             id="g36"
             transform="translate(420.0532,227.9156)"><path
               d="M 0,0 C 21.528,5.867 42.546,7.903 65.033,6.107 66.23,4.551 65.991,3.712 67.188,2.155 43.489,4.432 22.979,2.874 2.156,-2.516 1.317,-1.557 0.838,-0.958 0,0"
               style="fill:#231f20;fill-opacity:1;fill-rule:evenodd;stroke:none"
               id="path38" /></g><g
             id="g40"
             transform="translate(438.8896,203.9869)"><path
               d="M 0,0 C 21.192,6.98 36.692,9.921 59.241,9.298 60.519,7.805 60.323,6.955 61.601,5.463 37.814,6.503 23.157,3.349 2.643,-3.118 1.756,-2.205 0.887,-0.913 0,0"
               style="fill:#231f20;fill-opacity:1;fill-rule:evenodd;stroke:none"
               id="path42" /></g><g
             id="g44"
             transform="translate(447.3955,176.608)"><path
               d="M 0,0 C 22.258,1.57 42.252,7.919 62.884,17.04 63.5,18.905 59.764,18.181 60.38,20.046 38.762,10.52 22.279,5.743 0.845,3.445 0.37,2.264 0.475,1.181 0,0"
               style="fill:#231f20;fill-opacity:1;fill-rule:evenodd;stroke:none"
               id="path46" /></g><g
             id="g48"
             transform="translate(427.2393,452.5811)"><path
               d="m 0,0 c 4.214,0 7.651,-3.437 7.651,-7.651 0,-4.215 -3.437,-7.652 -7.651,-7.652 -4.214,0 -7.652,3.437 -7.652,7.652 C -7.652,-3.437 -4.214,0 0,0 m 0,3.127 c 5.937,0 10.778,-4.842 10.778,-10.778 0,-5.937 -4.841,-10.779 -10.778,-10.779 -5.937,0 -10.779,4.842 -10.779,10.779 0,5.936 4.842,10.778 10.779,10.778"
               style="fill:#231f20;fill-opacity:1;fill-rule:evenodd;stroke:none"
               id="path50" /></g><g
             id="g52"
             transform="translate(450.9004,392.6343)"><path
               d="M 0,0 C 4.449,-2.399 12.635,-8.247 17.25,-3.66 9.301,-4.029 7.124,4.736 11.132,10.78 c 3.43,5.067 7.394,10.88 8.263,16.968 -7.159,0.337 -13.415,1.556 -20.132,4.043 -3.467,-7.962 -9.705,-12.852 -10.929,-21.778 -2.354,-9.987 0.333,-28.897 14.305,-29.762 2.913,-0.034 4.344,1.223 6.332,3.186 -2.793,0.579 -4.973,2.082 -6.539,4.399 C 0.267,-8.496 0.375,-4.122 0,0 M -3.541,34.69 C -5.696,23.672 -15.397,23.792 -15.397,1.635 c -0.679,-19.302 19.03,-35.477 30.54,-15.091 -7.187,-1.197 -11.019,1.438 -11.497,7.905 11.458,-6.495 17.467,-1.689 19.401,7.186 -8.264,-5.389 -13.295,0.12 -9.701,6.826 4.083,6.228 8.63,10.66 9.701,20.839 -8.863,-0.119 -17.726,1.678 -26.588,5.39"
               style="fill:#231f20;fill-opacity:1;fill-rule:evenodd;stroke:none"
               id="path54" /></g><g
             id="g56"
             transform="translate(429.5254,406.419)"><path
               d="m 0,0 c -6.035,-2.165 -10.213,-5.995 -10.445,-11.606 -0.183,-4.748 2.815,-11.73 8.704,-17.641 0.31,0.271 0.62,0.542 0.929,0.813 -4.915,5.624 -7.159,12.791 -6.964,16.597 0.407,4.054 4.415,8.311 9.294,9.71 z"
               style="fill:#231f20;fill-opacity:1;fill-rule:evenodd;stroke:none"
               id="path58" /></g><g
             id="g60"
             transform="translate(429.0996,454.646)"><path
               d="M 0,0 C -5.032,0.963 -0.446,0.192 -6.34,-0.229 -11.535,7.279 -13.708,24.34 -3.766,29.069 0.712,30.845 5.026,29.16 6.555,24.671 8.699,17.114 5.352,5.83 0,0 M 0.913,32.761 C 9.658,31.758 11.678,23.19 9.543,12.698 8.21,6.141 4.937,0.834 1.539,-2.15 c -0.395,-0.234 -1.933,1.222 -4.463,0.786 -3.388,-0.014 -4.513,-2.048 -5.027,-1.507 -3.408,3.313 -6.293,10.502 -5.922,18.256 0.501,10.447 6.042,18.379 14.786,17.376"
               style="fill:#231f20;fill-opacity:1;fill-rule:evenodd;stroke:none"
               id="path62" /></g><g
             id="g64"
             transform="translate(433.1025,500.833)"><path
               d="m 0,0 c -16.322,-0.145 -26.856,-16.57 -27.174,-31.746 -0.028,-3.961 0.637,-7.862 2.102,-11.551 l 3.369,-8.128 c -4.215,2.115 -8.409,5.015 -13.183,5.421 -4.132,-0.274 -5.716,-2.924 -6.301,-6.788 -0.064,-2.225 0.31,-4.22 1.204,-6.269 1.608,2.933 4.044,4.901 6.76,5.186 4.838,0.347 7.631,-2.917 9.376,-7.185 2.674,-7.834 2.471,-23.535 13.278,-23.27 8.041,0.793 10.084,5.71 13.109,12.711 -3.92,1.962 -7.659,4.28 -11.43,6.512 2.666,-0.206 9.992,0.859 11.368,7.323 2.447,-0.68 6.769,-1.898 6.599,-0.091 -0.629,8.036 1.248,15.593 4.989,22.697 2.732,5.467 5.472,11.237 5.895,17.418 C 20.01,-6.736 9.933,-0.685 0,0 m 12.909,-62.125 c -2.194,9.618 0.122,18.405 3.941,25.52 5.459,10.823 9.41,21.395 2.814,30.209 -15.843,17.651 -45.162,11.407 -49.912,-23.83 -0.313,-5.254 0.688,-10.508 2.439,-14.636 -13.756,7.538 -22.665,-7.822 -11.446,-21.203 2.565,12.071 11.571,12.322 13.51,-0.188 1.876,-11.07 6.943,-22.204 13.135,-21.203 12.266,-0.526 15.274,7.758 18.952,16.325 -4.504,1.438 -6.568,2.877 -10.321,5.066 4.585,1.65 4.491,3.625 6.943,6.567 3.127,-0.876 6.817,-1.751 9.945,-2.627"
               style="fill:#231f20;fill-opacity:1;fill-rule:evenodd;stroke:none"
               id="path66" /></g><g
             id="g68"
             transform="translate(413.5107,557.4302)"><path
               d="m 0,0 c 0,-1.041 0.139,-1.943 0.139,-2.984 -51.434,-6.824 -82.779,-30.966 -93.19,-68.878 -14.179,-51.634 29.32,-107.355 31.261,-173.668 25.111,1.002 49.972,-0.32 74.341,-4.155 1.769,21.099 -6.599,39.865 2.728,57.863 1.339,-0.743 0.87,-0.654 2.209,-1.397 -8.565,-16.221 0.338,-35.729 -2.202,-60.035 -26.061,4.968 -52.294,5.604 -79.921,4.69 0.76,60.263 -46.312,128.139 -31.29,177.624 C -83.719,-30.73 -51.606,-6.469 0,0"
               style="fill:#231f20;fill-opacity:1;fill-rule:evenodd;stroke:none"
               id="path70" /></g><g
             id="g72"
             transform="translate(411.7959,404.7051)"><path
               d="m 0,0 -0.56,-4.151 c -16.799,-16.004 -35.055,-29.833 -56.904,-37.789 3.483,-13.303 6.02,-26.697 6.436,-40.925 23.155,0.923 31.483,0.128 53.953,-3.409 0.98,18.805 -4.342,39.947 4.523,57.864 1.234,-0.685 1.516,-1.822 2.08,-2.758 -8.161,-16.015 -1.535,-37.6 -3.578,-58.816 -24.032,4.582 -34.461,4.745 -59.936,3.902 0.193,15.267 -2.591,30.143 -7.052,46.167 C -41.104,-35.504 -14.948,-13.339 0,0 m 2.641,141.463 c -46.106,-6.676 -73.884,-28.539 -83.333,-62.951 -9.24,-33.649 8.502,-69.8 20.336,-109.694 13.362,2.49 48.353,31.423 63.104,44.545 0.187,-0.645 2.274,-1.503 2.458,-2.15 -12.229,-9.085 -41.783,-40.141 -67.745,-46.268 -11.9,41.065 -30.937,82.444 -21.192,114.547 11.054,36.416 39.638,58.647 85.74,65.08 z"
               style="fill:#231f20;fill-opacity:1;fill-rule:evenodd;stroke:none"
               id="path74" /></g><g
             id="g76"
             transform="translate(358.8994,399.7784)"><path
               d="m 0,0 c 2.78,-2.125 5.172,-1.869 8.356,-0.357 7.287,3.743 7.325,4.174 14.141,0.187 1.28,1.877 1.969,4.383 2.038,6.852 2.591,-2.659 3.274,-8.842 3.119,-12.458 -4.204,-2.825 -8.246,-6.108 -12.382,-9.029 -0.233,1.055 -0.875,3.097 -1.424,4.007 -2.527,2.755 -4.529,2.912 -8.13,2.895 -3.644,-0.382 -7.944,-1.723 -11.259,0.629 -0.725,0.633 -1.145,1.22 -1.58,2.076 -2.178,5.368 -0.095,12.49 1.587,17.835 1.164,3.943 1.304,7.747 0.143,11.71 3.771,-1.573 3.913,-6.025 4.144,-9.529 3.561,1.15 6.091,1.229 7.472,-1.046 C 0.664,13.99 -3,9.356 -2.276,4.177 -1.841,2.28 -1.29,1.333 0,0 m 12.307,-19.359 c 0.957,8.803 -3.358,9.084 -9.679,7.848 -12.785,-1.921 -17.087,6.938 -11.154,25.06 1.832,5.932 0.413,10.21 -1.805,14.586 6.585,0.2 11.284,-2.309 11.642,-9.891 5.574,0.764 9.054,-2.113 9.328,-9.453 -5.868,4.69 -11.792,-0.329 -9.37,-5.483 4.209,-6.326 10.636,7.08 19.865,0.988 0.928,1.705 0.125,4.403 -1.126,7.043 6.148,-0.323 10.861,-6.051 10.666,-17.855 -6.395,-4.164 -11.972,-8.679 -18.367,-12.843"
               style="fill:#231f20;fill-opacity:1;fill-rule:evenodd;stroke:none"
               id="path78" /></g><g
             id="g80"
             transform="translate(474.4131,566.963)"><path
               d="m 0,0 c 1.531,5.866 2.872,9.208 8.612,14.631 1.487,-0.298 1.236,-0.99 2.722,-1.287 C 6.267,8.72 3.952,5.009 2.65,-0.943 2.65,-0.943 0.446,-0.446 0,0"
               style="fill:#231f20;fill-opacity:1;fill-rule:evenodd;stroke:none"
               id="path82" /></g><g
             id="g84"
             transform="translate(335.9502,287.0142)"><path
               d="m 0,0 c 0.087,0.866 1.211,1.312 1.286,2.17 4.539,40.915 -5.787,72.058 -22.013,110.313 -7.609,20.371 -11.774,38.273 -12.619,60.109 3.725,80.468 67.005,132.168 149.399,129.019 16.222,-1.681 30.771,-5.426 45.92,-11.585 2.994,5.578 6.218,11.034 9.229,16.606 -17.951,8.455 -35.63,11.611 -55.311,12.658 -93.963,-0.301 -160.972,-61.03 -163.944,-148.374 0.766,-20.36 3.941,-36.927 11.117,-55.934 C -16.017,72.507 -11.414,51.677 -13.179,6.853 -8.439,4.434 -4.74,2.427 0,0 m -16.383,4.977 c 5.542,-2.833 11.085,-5.665 16.627,-8.498 l 4.469,8.74 c 6.422,83.302 -33.568,98.496 -34.927,167.07 5.216,105.621 112.357,149.629 193.636,113.772 3.271,6.395 8.801,15.612 12.072,22.007 C 95.359,349.525 -47.911,300.756 -51.184,170.95 -49.574,96.105 -11.556,97.199 -16.383,4.977"
               style="fill:#231f20;fill-opacity:1;fill-rule:evenodd;stroke:none"
               id="path86" /></g><g
             id="g88"
             transform="translate(487.5127,556.6646)"><path
               d="m 0,0 c 31.465,-11.853 50.376,-33.389 48.971,-81.1 13.119,-10.323 29.192,-19.807 36.171,-37.809 -35.126,-14.516 -81.198,-12.555 -137.235,2.801 0.561,1.307 0.841,1.773 1.401,3.081 43.312,-13.294 87.294,-16.865 131.352,-4.762 -7.568,16.47 -21.06,24.013 -35.33,34.729 1.587,37.623 -9.388,67.003 -47.29,80.539 C -0.653,-1.121 -1.307,-1.4 0,0"
               style="fill:#231f20;fill-opacity:1;fill-rule:evenodd;stroke:none"
               id="path90" /></g><g
             id="g92"
             transform="translate(429.7461,435.524)"><path
               d="m 0,0 c 29.033,-18.429 95.089,-19.346 146.974,-4.047 10.248,3.471 3.146,12.318 -7.083,10.877 -0.928,1.518 -1.856,2.277 -2.784,3.795 21.126,1.181 22.897,-14.418 11.131,-17.961 C 98.263,-24.012 16.357,-19.889 -3.541,-1.012 -2.36,-0.506 -1.18,-0.506 0,0"
               style="fill:#231f20;fill-opacity:1;fill-rule:evenodd;stroke:none"
               id="path94" /></g><g
             id="g96"
             transform="translate(529.6982,478.4878)"><path
               d="M 0,0 -16.137,-3.94 0.751,-4.691 Z"
               style="fill:#231f20;fill-opacity:1;fill-rule:evenodd;stroke:none"
               id="path98" /></g><g
             id="g100"
             transform="translate(467.1934,521.6622)"><path
               d="m 0,0 c -13.068,21.891 -37.613,28.636 -16.998,48.035 -4.391,1.016 -8.751,0.023 -11.509,-3.072 -5.32,2.138 -9.839,0.691 -13.927,-4.341 -12.442,-1.771 -11.444,-10.28 -5.144,-21.446 -5.457,-7.059 -4.749,-12.851 3.602,-17.19 -0.814,-2.714 -1.258,-4.593 -2.073,-7.307 -6.722,0.048 -10.376,-5.637 -13.389,-10.797 -9.726,13.247 -18.634,12.317 -27.836,0.127 -4.285,-5.032 -10.395,-6.446 -18.565,-5.885 4.402,-9.247 17.757,-14.689 28.137,-4.09 8.832,8.308 12.67,9.771 16.137,6.519 4.233,-6.549 -0.557,-17.346 -11.165,-19.904 -0.271,-1.537 -0.543,-3.075 -0.814,-4.613 3.799,-2.714 7.506,-5.705 11.305,-8.419 -0.362,-1.357 -0.723,-2.158 -1.085,-3.515 -4.704,3.528 -9.316,6.778 -14.02,10.306 0.452,2.895 0.905,5.79 1.357,8.684 8.283,2.783 13.651,7.113 11.565,14.847 -1.109,1.822 -5.301,-1.921 -11.836,-7.52 -10.285,-11.776 -31.178,-4.489 -35.996,12.577 9.296,-2.521 16.805,-2.203 22.155,3.435 9.584,11.285 19.351,14.409 30.043,3.714 3.518,3.833 6.698,7.017 11.202,7.883 0.181,1.266 0.454,1.142 0.635,2.409 -7.485,5.249 -8.304,11.449 -3.615,18.831 -6.812,13.92 -4.335,22.72 7.685,24.71 4.588,4.963 9.924,6.743 14.759,4.785 5.492,2.904 10.317,6.222 19.077,-0.457 C -36.815,31.025 -6.809,21.21 1.616,0.993 0.893,0.631 0.724,0.362 0,0"
               style="fill:#231f20;fill-opacity:1;fill-rule:evenodd;stroke:none"
               id="path102" /></g><g
             id="g104"
             transform="translate(444.9404,552.3287)"><path
               d="M 0,0 C 14.399,15.456 29.834,19.361 46.406,10.584 44.597,7.599 42.787,4.613 40.979,1.628 c 4.967,-7.894 9.146,-16.25 10.855,-26.053 0.724,-1.945 0.361,-3.754 -1.086,-5.427 -1.899,-1.447 -3.799,-2.895 -5.699,-4.342 -4.367,-1.994 -8.768,4.096 -8.516,7.548 -2.33,1.873 -4.149,2.726 -5.155,3.374 1.548,-7.931 10.019,-11.062 12.179,-20.117 6,7.866 12.314,11.175 21.032,-0.032 6.228,-6.289 8.935,-5.932 12.755,-19.811 -5.156,-0.724 -10.007,-1.448 -15.163,-2.171 -0.182,2.985 -0.668,5.97 -0.849,8.955 -1.81,0.995 -3.415,2.399 -5.224,3.394 -1.719,-2.443 -3.641,-5.294 -5.36,-7.736 4.818,-5.703 10.285,-11.357 16.106,-17.407 5.059,-5.12 13.863,-9.135 20.226,-15.261 -5.428,-0.995 -11.365,-1.888 -16.792,-2.883 -0.725,1.447 -1.448,2.895 -2.172,4.342 -6.924,1.995 -13.33,6.41 -17.538,11.943 -5.128,3.347 -9.628,5.878 -15.027,9.225 -4.509,-5.176 -15.84,-2.285 -28.495,-7.87 0.361,1.448 0.723,2.895 1.086,4.342 10.494,3.837 24.857,2.977 26.594,8.141 5.609,-3.618 12.033,-7.134 17.641,-10.753 4.587,-5.586 9.794,-9.725 17.911,-11.5 0.633,-1.357 1.266,-2.714 1.9,-4.071 2.08,0.453 4.465,0.905 6.546,1.357 -3.49,3.017 -7.727,5.262 -11.134,7.572 -10.182,8.139 -14.21,16.054 -21.703,22.213 3.076,4.524 5.846,8.842 8.921,13.365 3.529,-2.171 6.853,-4.342 10.381,-6.513 0,-2.262 0.203,-4.523 0.203,-6.785 2.353,0.272 4.704,0.543 7.057,0.814 -0.814,2.262 -1.629,4.524 -2.442,6.785 -3.62,3.709 -7.238,7.418 -10.856,11.127 -6.026,6.771 -10.337,0.665 -15.435,-7.088 -1.628,0.543 -1.933,0.779 -3.561,1.321 1.789,12.184 -16.685,15.789 -11.941,32.362 3.798,-2.714 7.598,-5.427 11.397,-8.141 1.597,-8.535 4.644,-8.339 8.685,-2.171 C 46.69,-15.167 41.802,-6.787 36.637,1.357 38.084,3.799 39.53,6.242 40.979,8.684 24.834,15.504 12.88,8.72 2.442,-2.985 1.628,-1.99 0.813,-0.995 0,0"
               style="fill:#231f20;fill-opacity:1;fill-rule:evenodd;stroke:none"
               id="path106" /></g><g
             id="g108"
             transform="translate(453.082,542.2872)"><path
               d="m 0,0 c 5.572,7.552 11.625,12.212 18.453,12.212 0.588,2.573 1.554,4.93 4.343,6.242 C 21.646,15.146 21.438,12.665 21.877,9.77 13.219,9.449 7.324,4.544 2.279,-2.548 1.284,-1.463 0.994,-1.085 0,0"
               style="fill:#231f20;fill-opacity:1;fill-rule:evenodd;stroke:none"
               id="path110" /></g><g
             id="g112"
             transform="translate(439.0947,409.3589)"><path
               d="m 0,0 c -12.94,17.172 -33.066,-2.676 -29.458,-15.449 3.149,-13.956 11.434,-19.7 15.806,-26.948 4.812,-8.364 13.549,-4.957 16.564,3.072 l -2.651,2.071 c -1.505,-3.517 -4.15,-6.687 -6.71,-6.854 -2.886,0.101 -4.139,2.733 -5.501,4.832 -7.261,10.214 -11.921,12.275 -14.622,24.814 -1.486,8.854 5.54,16.52 13.271,18.219 5.719,-0.112 8.057,-2.308 11.745,-6.773 -0.117,-0.481 -0.219,-1.002 -0.313,-1.556 l 0.354,-0.098 1.049,2.097 C -0.343,-1.721 -0.199,-0.865 0,0"
               style="fill:#231f20;fill-opacity:1;fill-rule:evenodd;stroke:none"
               id="path114" /></g><g
             id="g116"
             transform="translate(353.2271,310.5513)"><path
               d="m 0,0 c -0.798,-13.212 -17.986,-13.117 -19.405,-29.817 1.317,-10.602 9.821,-12.877 15.09,-10.421 4.432,-2.037 17.125,-7.666 21.558,-9.701 -2.046,5.512 -3.134,10.547 2.516,12.214 2.872,-7.306 9.126,-10.946 17.75,-12.501 -1.794,2.993 -2.183,7.352 -0.146,10.345 5.225,-7.766 13.259,-11.918 23.274,-11.064 -2.077,2.949 -3.984,5.461 -3.004,9.554 4.073,-6.825 11.95,-9.389 18.892,-8.548 -1.971,2.934 -3.978,5.663 -2.511,8.98 9.698,-10.42 18.44,-8.98 23.351,3.594 -4.806,-1.207 -8.49,0.329 -8.331,7.904 0.591,5.291 11.488,7.582 14.23,16.311 2.028,6.267 -0.389,7.809 -1.226,12.365 7.741,3.001 10.043,9.986 8.621,16.806 -6.243,-7.393 -11.482,-5.095 -10.854,2.59 -0.029,4.663 12.969,9.755 12.652,25.585 -0.296,8.082 -4.461,13.454 -9.195,17.529 -4.138,0.195 -6.239,0.395 -8.5,1.289 l -0.634,-1.16 c 1.564,-0.878 3.191,-1.428 5.91,-1.434 4.772,-4.429 8.402,-8.048 9.204,-15.047 0.587,-7.021 -1.965,-12.306 -6.522,-17.433 -4.372,-4.776 -7.234,-6.835 -5.715,-13.825 0.981,-2.942 2.295,-4.87 5.494,-5.628 1.954,-0.227 3.36,0.183 5.099,0.92 -0.705,-3.083 -2.776,-5.331 -5.556,-6.782 l -3.568,-1.5 c 1.11,-5.646 4.015,-9.983 0.753,-15.621 -3.969,-5.697 -13.391,-8.359 -13.305,-16.46 0.561,-4.508 1.518,-8.212 6.358,-9.605 -6.34,-10.088 -14.389,-0.221 -18.438,5.427 -2.482,-2.952 -4.318,-7.909 -2.773,-11.601 -6.844,0.742 -10.574,6.068 -14.249,11.028 -2.2,-4.575 -3.564,-7.076 -1.74,-12.031 -9.095,1.106 -13.075,6.707 -17.881,13.577 -2.48,-4.046 -4.627,-6.702 -4.28,-11.667 -6.605,2.315 -8.833,5.839 -11.382,11.97 -5.727,-1.859 -9.594,-3.694 -9.001,-10.524 -5.603,2.513 -11.219,5.01 -16.81,7.562 -3.091,-1.326 -5.61,-1.964 -8.691,0.389 -2.01,1.746 -2.898,4.063 -3.284,6.66 0.438,3.752 1.72,6.654 4.155,9.532 6.993,7.518 13.011,8.511 15.075,19.334 24.123,3.134 44.298,-0.476 68.354,-3.869 3.132,-0.297 4.105,1.801 3.8,6.564 0.511,12.635 -2.222,26.912 -2.703,39.683 0.417,1.194 2.862,12.277 3.715,12.047 6.905,3.06 8.655,0.728 10.811,5.246 l -0.601,0.427 C 84.875,55.058 82.891,52.895 75.163,54.827 73.606,50.635 72.765,45.727 71.206,41.536 71.628,28.312 74.417,14.241 73.8,1.08 74.412,-2.033 74.113,-3.696 71.342,-3.382 44.697,1.83 22.183,2.316 0,0"
               style="fill:#231f20;fill-opacity:1;fill-rule:evenodd;stroke:none"
               id="path118" /></g><g
             id="g120"
             transform="translate(513.6025,372.3618)"><path
               d="m 0,0 c -1.758,-8.472 1.494,-9.302 4.55,-7.744 2.148,1.772 3.894,2.826 6.219,1.985 C 6.554,-7.458 6.45,-11.126 3.179,-11.416 -3.836,-12.578 -3.944,-3.316 0,0"
               style="fill:#231f20;fill-opacity:1;fill-rule:evenodd;stroke:none"
               id="path122" /></g><g
             id="g124"
             transform="translate(518.7656,419.2583)"><path
               d="m 0,0 c 4.23,-14.129 10.282,-27.784 19.017,-40.13 4.469,-6.317 3.765,-10.769 -1.607,-12.339 -2.889,-0.938 -6.08,-1.7 -9.011,-2.598 -6.366,-2.337 -7.046,-8.842 -2.071,-17.52 -0.891,-2.512 -2.61,-4.402 -5.168,-6.47 l -3.316,-2.124 c 4.092,-1.124 5.927,-2.759 5.598,-5.471 -3.468,-2.543 -7.096,-8.614 -6.89,-12.494 -0.005,-5.438 2.117,-6.873 1.986,-13.811 -0.503,-5.606 -7.45,-7.999 -16.337,-7.683 -8.766,0.247 -15.781,1.119 -24.548,1.367 -5.813,0.396 -10.243,-3.728 -13.078,-8.256 -4.205,-8.052 -7.65,-17.157 -11.124,-26.309 -4.995,-10.67 -5.613,-14.085 -1.476,-19.377 0.852,-0.632 2.456,-0.388 1.932,0.482 -3.316,3.654 -2.124,10.592 2.257,18.9 0.892,2.709 6.853,16.58 11.237,24.876 3.26,4.742 6.869,6.36 10.377,6.489 8.15,0.124 16.299,-1.254 24.448,-1.131 10.476,-0.663 18.808,2.136 19.521,10.276 0.505,5.186 -1.366,8.621 -1.737,13.806 -0.488,4.392 4.67,10.086 7.531,11.797 -0.003,3.951 -1.326,5.901 -3.351,7.83 2.132,1.47 5.84,3.19 6.381,6.404 -5.434,10.51 -4.795,13.653 -1.195,15.595 3.087,1.112 5.673,1.348 8.76,2.458 11.111,4.088 6.864,12.067 2.107,19.002 C 12.103,-24.561 6.297,-11.768 2.814,0.981 1.209,0.487 1.605,0.494 0,0"
               style="fill:#231f20;fill-opacity:1;fill-rule:evenodd;stroke:none"
               id="path126" /></g><g
             id="g128"
             transform="translate(503.5713,340.4732)"><path
               d="m 0,0 c 2.206,-1.182 2.782,-1.702 4.751,-1.663 4.417,0.102 6.201,-0.08 9.767,-1.145 2.063,-0.123 2.41,-0.053 4.156,-0.492 0.482,1.866 0.667,2.572 -0.651,2.95 C 11.982,1.809 1.692,-0.901 0,0"
               style="fill:#231f20;fill-opacity:1;fill-rule:evenodd;stroke:none"
               id="path130" /></g><g
             id="g132"
             transform="translate(435,654.3121)"><path
               d="m 0,0 c 145.283,0 263.777,-118.495 263.777,-263.777 0,-145.284 -118.494,-263.778 -263.777,-263.778 -145.283,0 -263.777,118.494 -263.777,263.778 C -263.777,-118.495 -145.283,0 0,0 m 0,-11.472 c 138.964,0 252.306,-113.341 252.306,-252.305 0,-138.964 -113.342,-252.306 -252.306,-252.306 -138.964,0 -252.305,113.342 -252.305,252.306 0,138.964 113.341,252.305 252.305,252.305"
               style="fill:#231f20;fill-opacity:1;fill-rule:evenodd;stroke:none"
               id="path134" /></g></g></g><text
         transform="matrix(0.02720623,0.99962984,0.99962984,-0.02720623,127.6699,372.1973)"
         style="font-variant:normal;font-weight:normal;font-stretch:normal;font-size:74.3800354px;font-family:Copperplate;-inkscape-font-specification:Copperplate;writing-mode:lr-tb;fill:#231f20;fill-opacity:1;fill-rule:nonzero;stroke:none"
         id="text138"><tspan
           x="0"
           y="0"
           id="tspan136">U</tspan></text>
<text
         transform="matrix(0.19010614,0.98176354,0.98176354,-0.19010614,129.1709,424.8354)"
         style="font-variant:normal;font-weight:normal;font-stretch:normal;font-size:74.38002777px;font-family:Copperplate;-inkscape-font-specification:Copperplate;writing-mode:lr-tb;fill:#231f20;fill-opacity:1;fill-rule:nonzero;stroke:none"
         id="text142"><tspan
           x="0"
           y="0"
           id="tspan140">n</tspan></text>
<text
         transform="matrix(0.30622451,0.95195932,0.95195932,-0.30622451,139.1709,472.7676)"
         style="font-variant:normal;font-weight:normal;font-stretch:normal;font-size:74.38006592px;font-family:Copperplate;-inkscape-font-specification:Copperplate;writing-mode:lr-tb;fill:#231f20;fill-opacity:1;fill-rule:nonzero;stroke:none"
         id="text146"><tspan
           x="0"
           y="0"
           id="tspan144">i</tspan></text>
<text
         transform="matrix(0.40604578,0.91385274,0.91385274,-0.40604578,146.1748,496.063)"
         style="font-variant:normal;font-weight:normal;font-stretch:normal;font-size:74.3800354px;font-family:Copperplate;-inkscape-font-specification:Copperplate;writing-mode:lr-tb;fill:#231f20;fill-opacity:1;fill-rule:nonzero;stroke:none"
         id="text150"><tspan
           x="0"
           y="0"
           id="tspan148">v</tspan></text>
<text
         transform="matrix(0.52329381,0.85215233,0.85215233,-0.52329381,162.6245,533.2007)"
         style="font-variant:normal;font-weight:normal;font-stretch:normal;font-size:74.38001251px;font-family:Copperplate;-inkscape-font-specification:Copperplate;writing-mode:lr-tb;fill:#231f20;fill-opacity:1;fill-rule:nonzero;stroke:none"
         id="text154"><tspan
           x="0"
           y="0"
           id="tspan152">e</tspan></text>
<text
         transform="matrix(0.63579033,0.77186181,0.77186181,-0.63579033,183.6987,567.8857)"
         style="font-variant:normal;font-weight:normal;font-stretch:normal;font-size:74.38002014px;font-family:Copperplate;-inkscape-font-specification:Copperplate;writing-mode:lr-tb;fill:#231f20;fill-opacity:1;fill-rule:nonzero;stroke:none"
         id="text158"><tspan
           x="0"
           y="0"
           id="tspan156">r</tspan></text>
<text
         transform="matrix(0.73586667,0.67712646,0.67712646,-0.73586667,212.1621,602.3037)"
         style="font-variant:normal;font-weight:normal;font-stretch:normal;font-size:74.38005066px;font-family:Copperplate;-inkscape-font-specification:Copperplate;writing-mode:lr-tb;fill:#231f20;fill-opacity:1;fill-rule:nonzero;stroke:none"
         id="text162"><tspan
           x="0"
           y="0"
           id="tspan160">s</tspan></text>
<text
         transform="matrix(0.80317217,0.59574698,0.59574698,-0.80317217,242.5195,629.6772)"
         style="font-variant:normal;font-weight:normal;font-stretch:normal;font-size:74.38006592px;font-family:Copperplate;-inkscape-font-specification:Copperplate;writing-mode:lr-tb;fill:#231f20;fill-opacity:1;fill-rule:nonzero;stroke:none"
         id="text166"><tspan
           x="0"
           y="0"
           id="tspan164">i</tspan></text>
<text
         transform="matrix(0.86496581,0.5018308,0.5018308,-0.86496581,261.6587,644.6343)"
         style="font-variant:normal;font-weight:normal;font-stretch:normal;font-size:74.38005066px;font-family:Copperplate;-inkscape-font-specification:Copperplate;writing-mode:lr-tb;fill:#231f20;fill-opacity:1;fill-rule:nonzero;stroke:none"
         id="text170"><tspan
           x="0"
           y="0"
           id="tspan168">d</tspan></text>
<text
         transform="matrix(0.92621911,0.37698562,0.37698562,-0.92621911,300.3022,666.9595)"
         style="font-variant:normal;font-weight:normal;font-stretch:normal;font-size:74.38002777px;font-family:Copperplate;-inkscape-font-specification:Copperplate;writing-mode:lr-tb;fill:#231f20;fill-opacity:1;fill-rule:nonzero;stroke:none"
         id="text174"><tspan
           x="0"
           y="0"
           id="tspan172">a</tspan></text>
<text
         transform="matrix(0.96968462,0.24435985,0.24435985,-0.96968462,337.7939,682.4336)"
         style="font-variant:normal;font-weight:normal;font-stretch:normal;font-size:74.38005829px;font-family:Copperplate;-inkscape-font-specification:Copperplate;writing-mode:lr-tb;fill:#231f20;fill-opacity:1;fill-rule:nonzero;stroke:none"
         id="text178"><tspan
           x="0"
           y="0"
           id="tspan176">d</tspan></text>
<text
         transform="matrix(0.9942043,0.10750727,0.10750727,-0.9942043,381.1079,693.2539)"
         style="font-variant:normal;font-weight:normal;font-stretch:normal;font-size:74.38008118px;font-family:Copperplate;-inkscape-font-specification:Copperplate;writing-mode:lr-tb;fill:#231f20;fill-opacity:1;fill-rule:nonzero;stroke:none"
         id="text182"><tspan
           x="0"
           y="0"
           id="tspan180">e</tspan></text>
<text
         transform="matrix(0.99478243,-0.10201925,-0.10201925,-0.99478243,444.0791,697.9736)"
         style="font-variant:normal;font-weight:normal;font-stretch:normal;font-size:74.38008118px;font-family:Copperplate;-inkscape-font-specification:Copperplate;writing-mode:lr-tb;fill:#231f20;fill-opacity:1;fill-rule:nonzero;stroke:none"
         id="text186"><tspan
           x="0"
           y="0"
           id="tspan184">d</tspan></text>
<text
         transform="matrix(0.97102662,-0.23897136,-0.23897136,-0.97102662,488.4912,693.3364)"
         style="font-variant:normal;font-weight:normal;font-stretch:normal;font-size:74.38004303px;font-family:Copperplate;-inkscape-font-specification:Copperplate;writing-mode:lr-tb;fill:#231f20;fill-opacity:1;fill-rule:nonzero;stroke:none"
         id="text190"><tspan
           x="0"
           y="0"
           id="tspan188">e</tspan></text>
<text
         transform="matrix(0.89539176,-0.44527924,-0.44527924,-0.89539176,549.2109,676.3936)"
         style="font-variant:normal;font-weight:normal;font-stretch:normal;font-size:74.38006592px;font-family:Copperplate;-inkscape-font-specification:Copperplate;writing-mode:lr-tb;fill:#231f20;fill-opacity:1;fill-rule:nonzero;stroke:none"
         id="text194"><tspan
           x="0"
           y="0"
           id="tspan192">S</tspan></text>
<text
         transform="matrix(0.82146489,-0.57025909,-0.57025909,-0.82146489,592.7441,654.4756)"
         style="font-variant:normal;font-weight:normal;font-stretch:normal;font-size:74.38005066px;font-family:Copperplate;-inkscape-font-specification:Copperplate;writing-mode:lr-tb;fill:#231f20;fill-opacity:1;fill-rule:nonzero;stroke:none"
         id="text198"><tspan
           x="0"
           y="0"
           id="tspan196">ã</tspan></text>
<text
         transform="matrix(0.73517049,-0.67788226,-0.67788226,-0.73517049,626.1885,631.4937)"
         style="font-variant:normal;font-weight:normal;font-stretch:normal;font-size:74.38002777px;font-family:Copperplate;-inkscape-font-specification:Copperplate;writing-mode:lr-tb;fill:#231f20;fill-opacity:1;fill-rule:nonzero;stroke:none"
         id="text202"><tspan
           x="0"
           y="0"
           id="tspan200">o</tspan></text>
<text
         transform="matrix(0.56608848,-0.82434449,-0.82434449,-0.56608848,674.0117,584.4126)"
         style="font-variant:normal;font-weight:normal;font-stretch:normal;font-size:74.38006592px;font-family:Copperplate;-inkscape-font-specification:Copperplate;writing-mode:lr-tb;fill:#231f20;fill-opacity:1;fill-rule:nonzero;stroke:none"
         id="text206"><tspan
           x="0"
           y="0"
           id="tspan204">P</tspan></text>
<text
         transform="matrix(0.44075779,-0.89762608,-0.89762608,-0.44075779,701.4014,544.1162)"
         style="font-variant:normal;font-weight:normal;font-stretch:normal;font-size:74.38008118px;font-family:Copperplate;-inkscape-font-specification:Copperplate;writing-mode:lr-tb;fill:#231f20;fill-opacity:1;fill-rule:nonzero;stroke:none"
         id="text210"><tspan
           x="0"
           y="0"
           id="tspan208">a</tspan></text>
<text
         transform="matrix(0.30539223,-0.95222665,-0.95222665,-0.30539223,719.5811,507.9248)"
         style="font-variant:normal;font-weight:normal;font-stretch:normal;font-size:74.38008881px;font-family:Copperplate;-inkscape-font-specification:Copperplate;writing-mode:lr-tb;fill:#231f20;fill-opacity:1;fill-rule:nonzero;stroke:none"
         id="text214"><tspan
           x="0"
           y="0"
           id="tspan212">u</tspan></text>
<text
         transform="matrix(0.16345773,-0.98655034,-0.98655034,-0.16345773,734.2344,461.4473)"
         style="font-variant:normal;font-weight:normal;font-stretch:normal;font-size:74.38008881px;font-family:Copperplate;-inkscape-font-specification:Copperplate;writing-mode:lr-tb;fill:#231f20;fill-opacity:1;fill-rule:nonzero;stroke:none"
         id="text218"><tspan
           x="0"
           y="0"
           id="tspan216">l</tspan></text>
<text
         transform="matrix(0.02621805,-0.99965625,-0.99965625,-0.02621805,741.0508,421.4443)"
         style="font-variant:normal;font-weight:normal;font-stretch:normal;font-size:74.38006592px;font-family:Copperplate;-inkscape-font-specification:Copperplate;writing-mode:lr-tb;fill:#231f20;fill-opacity:1;fill-rule:nonzero;stroke:none"
         id="text222"><tspan
           x="0"
           y="0"
           id="tspan220">o</tspan></text>
<text
         transform="matrix(0.37813845,-0.92574905,-0.92574905,-0.37813845,107.6353,281.8555)"
         style="font-variant:normal;font-weight:normal;font-stretch:normal;font-size:67.99996185px;font-family:Copperplate;-inkscape-font-specification:Copperplate;writing-mode:lr-tb;fill:#231f20;fill-opacity:1;fill-rule:nonzero;stroke:none"
         id="text226"><tspan
           x="0"
           y="0"
           id="tspan224">E</tspan></text>
<text
         transform="matrix(0.51167767,-0.85917749,-0.85917749,-0.51167767,127.3691,234.6953)"
         style="font-variant:normal;font-weight:normal;font-stretch:normal;font-size:68.00003815px;font-family:Copperplate;-inkscape-font-specification:Copperplate;writing-mode:lr-tb;fill:#231f20;fill-opacity:1;fill-rule:nonzero;stroke:none"
         id="text230"><tspan
           x="0"
           y="0"
           id="tspan228">S</tspan></text>
<text
         transform="matrix(0.63765944,-0.7703184,-0.7703184,-0.63765944,153.8936,190.7803)"
         style="font-variant:normal;font-weight:normal;font-stretch:normal;font-size:67.99993134px;font-family:Copperplate;-inkscape-font-specification:Copperplate;writing-mode:lr-tb;fill:#231f20;fill-opacity:1;fill-rule:nonzero;stroke:none"
         id="text234"><tspan
           x="0"
           y="0"
           id="tspan232">C</tspan></text>
<text
         transform="matrix(0.75585035,-0.65474442,-0.65474442,-0.75585035,189.4487,148.3916)"
         style="font-variant:normal;font-weight:normal;font-stretch:normal;font-size:67.99996948px;font-family:Copperplate;-inkscape-font-specification:Copperplate;writing-mode:lr-tb;fill:#231f20;fill-opacity:1;fill-rule:nonzero;stroke:none"
         id="text238"><tspan
           x="0"
           y="0"
           id="tspan236">O</tspan></text>
<text
         transform="matrix(0.84743471,-0.53089963,-0.53089963,-0.84743471,234.4771,110.5645)"
         style="font-variant:normal;font-weight:normal;font-stretch:normal;font-size:68.00004578px;font-family:Copperplate;-inkscape-font-specification:Copperplate;writing-mode:lr-tb;fill:#231f20;fill-opacity:1;fill-rule:nonzero;stroke:none"
         id="text242"><tspan
           x="0"
           y="0"
           id="tspan240">L</tspan></text>
<text
         transform="matrix(0.91450929,-0.40456491,-0.40456491,-0.91450929,274.5762,85.7529)"
         style="font-variant:normal;font-weight:normal;font-stretch:normal;font-size:67.99996185px;font-family:Copperplate;-inkscape-font-specification:Copperplate;writing-mode:lr-tb;fill:#231f20;fill-opacity:1;fill-rule:nonzero;stroke:none"
         id="text246"><tspan
           x="0"
           y="0"
           id="tspan244">A</tspan></text>
<text
         transform="matrix(0.98103,-0.193856,-0.193856,-0.98103,344.8584,58.3105)"
         style="font-variant:normal;font-weight:normal;font-stretch:normal;font-size:67.99996185px;font-family:Copperplate;-inkscape-font-specification:Copperplate;writing-mode:lr-tb;fill:#231f20;fill-opacity:1;fill-rule:nonzero;stroke:none"
         id="text250"><tspan
           x="0"
           y="0"
           id="tspan248">P</tspan></text>
<text
         transform="matrix(0.99939363,-0.0348191,-0.0348191,-0.99939363,395.4004,48.5303)"
         style="font-variant:normal;font-weight:normal;font-stretch:normal;font-size:68.00003052px;font-family:Copperplate;-inkscape-font-specification:Copperplate;writing-mode:lr-tb;fill:#231f20;fill-opacity:1;fill-rule:nonzero;stroke:none"
         id="text254"><tspan
           x="0"
           y="0"
           id="tspan252">O</tspan></text>
<text
         transform="matrix(0.99306123,0.11759847,0.11759847,-0.99306123,454.1514,47.3535)"
         style="font-variant:normal;font-weight:normal;font-stretch:normal;font-size:68.00003815px;font-family:Copperplate;-inkscape-font-specification:Copperplate;writing-mode:lr-tb;fill:#231f20;fill-opacity:1;fill-rule:nonzero;stroke:none"
         id="text258"><tspan
           x="0"
           y="0"
           id="tspan256">L</tspan></text>
<text
         transform="matrix(0.97477001,0.22321163,0.22321163,-0.97477001,499.873,53.5234)"
         style="font-variant:normal;font-weight:normal;font-stretch:normal;font-size:68.00003815px;font-family:Copperplate;-inkscape-font-specification:Copperplate;writing-mode:lr-tb;fill:#231f20;fill-opacity:1;fill-rule:nonzero;stroke:none"
         id="text262"><tspan
           x="0"
           y="0"
           id="tspan260">I</tspan></text>
<text
         transform="matrix(0.94514023,0.32666489,0.32666489,-0.94514023,526.5039,59.3535)"
         style="font-variant:normal;font-weight:normal;font-stretch:normal;font-size:67.99996185px;font-family:Copperplate;-inkscape-font-specification:Copperplate;writing-mode:lr-tb;fill:#231f20;fill-opacity:1;fill-rule:nonzero;stroke:none"
         id="text266"><tspan
           x="0"
           y="0"
           id="tspan264">T</tspan></text>
<text
         transform="matrix(0.8886102,0.45866319,0.45866319,-0.8886102,571.0156,75.0254)"
         style="font-variant:normal;font-weight:normal;font-stretch:normal;font-size:68.00000763px;font-family:Copperplate;-inkscape-font-specification:Copperplate;writing-mode:lr-tb;fill:#231f20;fill-opacity:1;fill-rule:nonzero;stroke:none"
         id="text270"><tspan
           x="0"
           y="0"
           id="tspan268">É</tspan></text>
<text
         transform="matrix(0.80733233,0.59009704,0.59009704,-0.80733233,616.4551,98.8398)"
         style="font-variant:normal;font-weight:normal;font-stretch:normal;font-size:68px;font-family:Copperplate;-inkscape-font-specification:Copperplate;writing-mode:lr-tb;fill:#231f20;fill-opacity:1;fill-rule:nonzero;stroke:none"
         id="text274"><tspan
           x="0"
           y="0"
           id="tspan272">C</tspan></text>
<text
         transform="matrix(0.69896187,0.71515893,0.71515893,-0.69896187,660.9268,131.7969)"
         style="font-variant:normal;font-weight:normal;font-stretch:normal;font-size:67.99999237px;font-family:Copperplate;-inkscape-font-specification:Copperplate;writing-mode:lr-tb;fill:#231f20;fill-opacity:1;fill-rule:nonzero;stroke:none"
         id="text278"><tspan
           x="0"
           y="0"
           id="tspan276">N</tspan></text>
<text
         transform="matrix(0.60509389,0.79615412,0.79615412,-0.60509389,700.5068,174.0811)"
         style="font-variant:normal;font-weight:normal;font-stretch:normal;font-size:68.00002289px;font-family:Copperplate;-inkscape-font-specification:Copperplate;writing-mode:lr-tb;fill:#231f20;fill-opacity:1;fill-rule:nonzero;stroke:none"
         id="text282"><tspan
           x="0"
           y="0"
           id="tspan280">I</tspan></text>
<text
         transform="matrix(0.50664559,0.86215442,0.86215442,-0.50664559,717.6133,195.7744)"
         style="font-variant:normal;font-weight:normal;font-stretch:normal;font-size:68px;font-family:Copperplate;-inkscape-font-specification:Copperplate;writing-mode:lr-tb;fill:#231f20;fill-opacity:1;fill-rule:nonzero;stroke:none"
         id="text286"><tspan
           x="0"
           y="0"
           id="tspan284">C</tspan></text>
<text
         transform="matrix(0.36710275,0.9301804,0.9301804,-0.36710275,744.9756,243.5293)"
         style="font-variant:normal;font-weight:normal;font-stretch:normal;font-size:68.00003815px;font-family:Copperplate;-inkscape-font-specification:Copperplate;writing-mode:lr-tb;fill:#231f20;fill-opacity:1;fill-rule:nonzero;stroke:none"
         id="text290"><tspan
           x="0"
           y="0"
           id="tspan288">A</tspan></text>
<g
         id="g292"><g
           id="g294"
           clip-path="url(#clipPath298)"><g
             id="g300"
             transform="translate(767.8486,329.7134)"><path
               d="m 0,0 c 0,-7.112 -5.766,-12.878 -12.878,-12.878 -7.112,0 -12.878,5.766 -12.878,12.878 0,7.112 5.766,12.878 12.878,12.878 C -5.766,12.878 0,7.112 0,0"
               style="fill:#85898f;fill-opacity:1;fill-rule:nonzero;stroke:none"
               id="path302" /></g><g
             id="g304"
             transform="translate(125.9849,329.7134)"><path
               d="m 0,0 c 0,-7.112 -5.766,-12.878 -12.878,-12.878 -7.112,0 -12.878,5.766 -12.878,12.878 0,7.112 5.766,12.878 12.878,12.878 C -5.766,12.878 0,7.112 0,0"
               style="fill:#85898f;fill-opacity:1;fill-rule:nonzero;stroke:none"
               id="path306" /></g></g></g></g></g></svg>