<?xml version="1.0" encoding="UTF-8" standalone="no"?>
<!-- Created with Inkscape (http://www.inkscape.org/) -->

<svg
   xmlns:dc="http://purl.org/dc/elements/1.1/"
   xmlns:cc="http://creativecommons.org/ns#"
   xmlns:rdf="http://www.w3.org/1999/02/22-rdf-syntax-ns#"
   xmlns:svg="http://www.w3.org/2000/svg"
   xmlns="http://www.w3.org/2000/svg"
   xmlns:sodipodi="http://sodipodi.sourceforge.net/DTD/sodipodi-0.dtd"
   xmlns:inkscape="http://www.inkscape.org/namespaces/inkscape"
   width="22.449718mm"
   height="20.372915mm"
   viewBox="0 0 22.449718 20.372915"
   version="1.1"
   id="svg1133"
   inkscape:version="0.92.3 (2405546, 2018-03-11)"
   sodipodi:docname="picto_teaching.svg">
  <defs
     id="defs1127">
    <clipPath
       clipPathUnits="userSpaceOnUse"
       id="clipPath152">
      <path
         d="M 0,0 H 720 V 540 H 0 Z"
         id="path150"
         inkscape:connector-curvature="0"
         style="clip-rule:evenodd" />
    </clipPath>
    <clipPath
       clipPathUnits="userSpaceOnUse"
       id="clipPath160">
      <path
         d="m 436.306,120.304 h 73.5 v 73.5 h -73.5 z"
         id="path158"
         inkscape:connector-curvature="0"
         style="clip-rule:evenodd" />
    </clipPath>
    <clipPath
       clipPathUnits="userSpaceOnUse"
       id="clipPath124">
      <path
         d="M 0,0 H 720 V 540 H 0 Z"
         id="path122"
         inkscape:connector-curvature="0"
         style="clip-rule:evenodd" />
    </clipPath>
    <clipPath
       clipPathUnits="userSpaceOnUse"
       id="clipPath132">
      <path
         d="m 279.526,217.176 h 73.5 v 73.5 h -73.5 z"
         id="path130"
         inkscape:connector-curvature="0"
         style="clip-rule:evenodd" />
    </clipPath>
    <clipPath
       clipPathUnits="userSpaceOnUse"
       id="clipPath176">
      <path
         d="M 0,0 H 720 V 540 H 0 Z"
         id="path174"
         inkscape:connector-curvature="0"
         style="clip-rule:evenodd" />
    </clipPath>
    <clipPath
       clipPathUnits="userSpaceOnUse"
       id="clipPath184">
      <path
         d="m 436.324,217.205 h 73.5 v 73.5 h -73.5 z"
         id="path182"
         inkscape:connector-curvature="0"
         style="clip-rule:evenodd" />
    </clipPath>
  </defs>
  <sodipodi:namedview
     id="base"
     pagecolor="#ffffff"
     bordercolor="#666666"
     borderopacity="1.0"
     inkscape:pageopacity="0.0"
     inkscape:pageshadow="2"
     inkscape:zoom="1.3225107"
     inkscape:cx="207.03227"
     inkscape:cy="84.25744"
     inkscape:document-units="mm"
     inkscape:current-layer="layer1"
     showgrid="false"
     inkscape:window-width="1533"
     inkscape:window-height="845"
     inkscape:window-x="67"
     inkscape:window-y="27"
     inkscape:window-maximized="1"
     fit-margin-top="0"
     fit-margin-left="0"
     fit-margin-right="0"
     fit-margin-bottom="0" />
  <metadata
     id="metadata1130">
    <rdf:RDF>
      <cc:Work
         rdf:about="">
        <dc:format>image/svg+xml</dc:format>
        <dc:type
           rdf:resource="http://purl.org/dc/dcmitype/StillImage" />
        <dc:title></dc:title>
      </cc:Work>
    </rdf:RDF>
  </metadata>
  <g
     inkscape:label="Layer 1"
     inkscape:groupmode="layer"
     id="layer1"
     transform="translate(-5.0502816,-274.5)">
    <g
       id="g170"
       transform="matrix(0.35277777,0,0,0.35277777,-150.50249,194.96449)"
       style="fill:#00b050;fill-opacity:1">
      <g
         clip-path="url(#clipPath176)"
         id="g172"
         style="fill:#00b050;fill-opacity:1">
        <g
           id="g178"
           style="fill:#00b050;fill-opacity:1">
          <g
             clip-path="url(#clipPath184)"
             id="g180"
             style="fill:#00b050;fill-opacity:1">
            <g
               id="g186"
               style="fill:#00b050;fill-opacity:1">
              <path
                 inkscape:connector-curvature="0"
                 id="path188"
                 style="fill:#00b050;fill-opacity:1;fill-rule:evenodd;stroke:none"
                 d="m 471.282,269.06 c 0,1.881 -1.525,3.405 -3.405,3.405 -1.881,0 -3.405,-1.524 -3.405,-3.405 0,-1.88 1.524,-3.405 3.405,-3.405 1.88,0 3.405,1.525 3.405,3.405" />
            </g>
            <g
               id="g190"
               style="fill:#00b050;fill-opacity:1">
              <path
                 inkscape:connector-curvature="0"
                 id="path192"
                 style="fill:#00b050;fill-opacity:1;fill-rule:nonzero;stroke:none"
                 d="M 474.574,280.205 V 276.8 c -0.011,-0.53 -0.258,-1.028 -0.675,-1.357 -0.978,-0.755 -2.098,-1.305 -3.292,-1.62 -0.902,-0.277 -1.839,-0.419 -2.783,-0.42 -0.942,0.014 -1.878,0.155 -2.782,0.42 -1.181,0.349 -2.295,0.897 -3.293,1.62 -0.416,0.329 -0.663,0.827 -0.675,1.357 v 3.405 h 13.5" />
            </g>
            <g
               id="g194"
               style="fill:#00b050;fill-opacity:1">
              <path
                 inkscape:connector-curvature="0"
                 id="path196"
                 style="fill:#00b050;fill-opacity:1;fill-rule:evenodd;stroke:none"
                 d="m 486.177,269.06 c 0,1.881 -1.525,3.405 -3.405,3.405 -1.881,0 -3.405,-1.524 -3.405,-3.405 0,-1.88 1.524,-3.405 3.405,-3.405 1.88,0 3.405,1.525 3.405,3.405" />
            </g>
            <g
               id="g198"
               style="fill:#00b050;fill-opacity:1">
              <path
                 inkscape:connector-curvature="0"
                 id="path200"
                 style="fill:#00b050;fill-opacity:1;fill-rule:nonzero;stroke:none"
                 d="M 489.574,280.205 V 276.8 c -0.011,-0.53 -0.258,-1.028 -0.675,-1.357 -0.978,-0.755 -2.098,-1.305 -3.292,-1.62 -0.902,-0.277 -1.839,-0.419 -2.783,-0.42 -0.942,0.014 -1.878,0.155 -2.782,0.42 -1.181,0.349 -2.295,0.897 -3.293,1.62 -0.416,0.329 -0.663,0.827 -0.675,1.357 v 3.405 h 13.5" />
            </g>
            <g
               id="g202"
               style="fill:#00b050;fill-opacity:1">
              <path
                 inkscape:connector-curvature="0"
                 id="path204"
                 style="fill:#00b050;fill-opacity:1;fill-rule:evenodd;stroke:none"
                 d="m 501.177,269.06 c 0,1.881 -1.525,3.405 -3.405,3.405 -1.881,0 -3.405,-1.524 -3.405,-3.405 0,-1.88 1.524,-3.405 3.405,-3.405 1.88,0 3.405,1.525 3.405,3.405" />
            </g>
            <g
               id="g206"
               style="fill:#00b050;fill-opacity:1">
              <path
                 inkscape:connector-curvature="0"
                 id="path208"
                 style="fill:#00b050;fill-opacity:1;fill-rule:nonzero;stroke:none"
                 d="M 504.574,280.205 V 276.8 c -0.011,-0.53 -0.258,-1.028 -0.675,-1.357 -0.978,-0.755 -2.098,-1.305 -3.292,-1.62 -0.902,-0.277 -1.839,-0.419 -2.783,-0.42 -0.942,0.014 -1.878,0.155 -2.782,0.42 -1.181,0.349 -2.295,0.897 -3.293,1.62 -0.416,0.329 -0.663,0.827 -0.675,1.357 v 3.405 h 13.5" />
            </g>
            <g
               id="g210"
               style="fill:#00b050;fill-opacity:1">
              <path
                 inkscape:connector-curvature="0"
                 id="path212"
                 style="fill:#00b050;fill-opacity:1;fill-rule:evenodd;stroke:none"
                 d="m 457.639,237.575 c 0,2.461 -1.994,4.455 -4.455,4.455 -2.46,0 -4.455,-1.994 -4.455,-4.455 0,-2.46 1.995,-4.455 4.455,-4.455 2.461,0 4.455,1.995 4.455,4.455" />
            </g>
            <g
               id="g214"
               style="fill:#00b050;fill-opacity:1">
              <path
                 inkscape:connector-curvature="0"
                 id="path216"
                 style="fill:#00b050;fill-opacity:1;fill-rule:nonzero;stroke:none"
                 d="m 479.457,235.858 c -0.441,-0.435 -1.149,-0.435 -1.59,0 l -9.69,9.69 c -0.774,-0.219 -1.607,-0.007 -2.183,0.555 -0.157,0.157 -2.955,4.732 -2.955,4.732 l -0.84,-3.577 c -0.111,-0.462 -0.341,-0.886 -0.667,-1.23 -1.382,-1.118 -2.973,-1.949 -4.68,-2.445 -1.207,-0.258 -2.434,-0.407 -3.668,-0.443 -1.244,0.019 -2.48,0.206 -3.675,0.555 -1.722,0.452 -3.319,1.288 -4.672,2.445 -0.329,0.343 -0.56,0.768 -0.668,1.23 0,0 -3.232,13.575 -3.232,13.8 0,1.243 1.007,2.25 2.25,2.25 0.996,-0.025 1.856,-0.703 2.115,-1.665 l 2.34,-9.682 v 31.132 h 4.432 v -20.032 h 2.25 v 20.032 h 4.425 V 251.93 l 0.825,3.525 c 0.058,0.244 0.22,0.45 0.443,0.563 0.862,0.662 1.913,1.032 3,1.057 0.708,0.099 1.409,-0.219 1.8,-0.817 l 4.575,-7.5 c 0.292,-0.461 0.402,-1.015 0.307,-1.553 l 9.75,-9.75 c 0.442,-0.44 0.445,-1.154 0.008,-1.597" />
            </g>
            <g
               id="g218"
               style="fill:#00b050;fill-opacity:1">
              <path
                 inkscape:connector-curvature="0"
                 id="path220"
                 style="fill:#00b050;fill-opacity:1;fill-rule:nonzero;stroke:none"
                 d="m 494.824,225.455 h -36.75 c -1.656,0 -3,1.343 -3,3 v 2.7 c 1.147,0.312 2.185,0.935 3,1.8 v -4.5 h 36.75 v 24.75 h -25.597 l -1.83,3 h 27.427 c 1.657,0 3,-1.343 3,-3 v -24.75 c 0,-1.657 -1.343,-3 -3,-3" />
            </g>
          </g>
        </g>
      </g>
    </g>
  </g>
</svg>
