<?xml version="1.0" encoding="UTF-8" standalone="no"?>
<!-- Created with Inkscape (http://www.inkscape.org/) -->

<svg
   xmlns:dc="http://purl.org/dc/elements/1.1/"
   xmlns:cc="http://creativecommons.org/ns#"
   xmlns:rdf="http://www.w3.org/1999/02/22-rdf-syntax-ns#"
   xmlns:svg="http://www.w3.org/2000/svg"
   xmlns="http://www.w3.org/2000/svg"
   xmlns:sodipodi="http://sodipodi.sourceforge.net/DTD/sodipodi-0.dtd"
   xmlns:inkscape="http://www.inkscape.org/namespaces/inkscape"
   width="22mm"
   height="13.391304mm"
   viewBox="0 0 22 13.391304"
   version="1.1"
   id="svg1133"
   inkscape:version="0.92.3 (2405546, 2018-03-11)"
   sodipodi:docname="picto_code.svg">
  <defs
     id="defs1127">
    <clipPath
       clipPathUnits="userSpaceOnUse"
       id="clipPath152">
      <path
         d="M 0,0 H 720 V 540 H 0 Z"
         id="path150"
         inkscape:connector-curvature="0"
         style="clip-rule:evenodd" />
    </clipPath>
    <clipPath
       clipPathUnits="userSpaceOnUse"
       id="clipPath160">
      <path
         d="m 436.306,120.304 h 73.5 v 73.5 h -73.5 z"
         id="path158"
         inkscape:connector-curvature="0"
         style="clip-rule:evenodd" />
    </clipPath>
  </defs>
  <sodipodi:namedview
     id="base"
     pagecolor="#ffffff"
     bordercolor="#666666"
     borderopacity="1.0"
     inkscape:pageopacity="0.0"
     inkscape:pageshadow="2"
     inkscape:zoom="3.5335833"
     inkscape:cx="86.555056"
     inkscape:cy="70.359111"
     inkscape:document-units="mm"
     inkscape:current-layer="layer1"
     showgrid="false"
     inkscape:window-width="1533"
     inkscape:window-height="845"
     inkscape:window-x="67"
     inkscape:window-y="27"
     inkscape:window-maximized="1"
     fit-margin-top="0"
     fit-margin-left="0"
     fit-margin-right="0"
     fit-margin-bottom="0" />
  <metadata
     id="metadata1130">
    <rdf:RDF>
      <cc:Work
         rdf:about="">
        <dc:format>image/svg+xml</dc:format>
        <dc:type
           rdf:resource="http://purl.org/dc/dcmitype/StillImage" />
        <dc:title></dc:title>
      </cc:Work>
    </rdf:RDF>
  </metadata>
  <g
     inkscape:label="Layer 1"
     inkscape:groupmode="layer"
     id="layer1"
     transform="translate(-1.4999994,-277.80435)">
    <g
       id="g146"
       transform="matrix(0.31884058,0,0,0.31884058,-138.32945,234.42481)"
       style="fill:#00b050;fill-opacity:1">
      <g
         clip-path="url(#clipPath152)"
         id="g148"
         style="fill:#00b050;fill-opacity:1">
        <g
           id="g154"
           style="fill:#00b050;fill-opacity:1">
          <g
             clip-path="url(#clipPath160)"
             id="g156"
             style="fill:#00b050;fill-opacity:1">
            <g
               id="g162"
               style="fill:#00b050;fill-opacity:1">
              <path
                 inkscape:connector-curvature="0"
                 id="path164"
                 style="fill:#00b050;fill-opacity:1;fill-rule:nonzero;stroke:none"
                 d="m 479.056,164.554 h -36 v -24 h 36 z m 1.5,-28.5 h -39 c -1.65,0 -3,1.35 -3,3 v 27 c 0,1.65 1.35,3 3,3 h 15 v 4.5 h -6.75 v 4.5 h 22.5 v -4.5 h -6.75 v -4.5 h 15 c 1.65,0 3,-1.35 3,-3 v -27 c 0,-1.65 -1.35,-3 -3,-3" />
            </g>
            <g
               id="g166"
               style="fill:#00b050;fill-opacity:1">
              <path
                 inkscape:connector-curvature="0"
                 id="path168"
                 style="fill:#00b050;fill-opacity:1;fill-rule:nonzero;stroke:none"
                 d="m 504.556,143.554 h -15 v -4.5 h 15 z m 0,7.5 h -15 v -4.5 h 15 z m -7.5,22.5 c -1.275,0 -2.25,-0.975 -2.25,-2.25 0,-1.275 0.975,-2.25 2.25,-2.25 1.275,0 2.25,0.975 2.25,2.25 0,1.275 -0.975,2.25 -2.25,2.25 z m 7.5,-37.5 h -15 c -1.65,0 -3,1.35 -3,3 v 36 c 0,1.65 1.35,3 3,3 h 15 c 1.65,0 3,-1.35 3,-3 v -36 c 0,-1.65 -1.35,-3 -3,-3" />
            </g>
          </g>
        </g>
      </g>
    </g>
  </g>
</svg>
