<?xml version="1.0" encoding="UTF-8" standalone="no"?>
<!-- Created with Inkscape (http://www.inkscape.org/) -->

<svg
   xmlns:dc="http://purl.org/dc/elements/1.1/"
   xmlns:cc="http://creativecommons.org/ns#"
   xmlns:rdf="http://www.w3.org/1999/02/22-rdf-syntax-ns#"
   xmlns:svg="http://www.w3.org/2000/svg"
   xmlns="http://www.w3.org/2000/svg"
   xmlns:sodipodi="http://sodipodi.sourceforge.net/DTD/sodipodi-0.dtd"
   xmlns:inkscape="http://www.inkscape.org/namespaces/inkscape"
   width="17.727083mm"
   height="17.991667mm"
   viewBox="0 0 17.727083 17.991667"
   version="1.1"
   id="svg1133"
   inkscape:version="0.92.3 (2405546, 2018-03-11)"
   sodipodi:docname="picto_publications.svg">
  <defs
     id="defs1127">
    <clipPath
       clipPathUnits="userSpaceOnUse"
       id="clipPath152">
      <path
         d="M 0,0 H 720 V 540 H 0 Z"
         id="path150"
         inkscape:connector-curvature="0"
         style="clip-rule:evenodd" />
    </clipPath>
    <clipPath
       clipPathUnits="userSpaceOnUse"
       id="clipPath160">
      <path
         d="m 436.306,120.304 h 73.5 v 73.5 h -73.5 z"
         id="path158"
         inkscape:connector-curvature="0"
         style="clip-rule:evenodd" />
    </clipPath>
    <clipPath
       clipPathUnits="userSpaceOnUse"
       id="clipPath124">
      <path
         d="M 0,0 H 720 V 540 H 0 Z"
         id="path122"
         inkscape:connector-curvature="0"
         style="clip-rule:evenodd" />
    </clipPath>
    <clipPath
       clipPathUnits="userSpaceOnUse"
       id="clipPath132">
      <path
         d="m 279.526,217.176 h 73.5 v 73.5 h -73.5 z"
         id="path130"
         inkscape:connector-curvature="0"
         style="clip-rule:evenodd" />
    </clipPath>
  </defs>
  <sodipodi:namedview
     id="base"
     pagecolor="#ffffff"
     bordercolor="#666666"
     borderopacity="1.0"
     inkscape:pageopacity="0.0"
     inkscape:pageshadow="2"
     inkscape:zoom="3.5335833"
     inkscape:cx="152.55324"
     inkscape:cy="88.501525"
     inkscape:document-units="mm"
     inkscape:current-layer="layer1"
     showgrid="false"
     inkscape:window-width="1533"
     inkscape:window-height="845"
     inkscape:window-x="67"
     inkscape:window-y="27"
     inkscape:window-maximized="1"
     fit-margin-top="0"
     fit-margin-left="0"
     fit-margin-right="0"
     fit-margin-bottom="0" />
  <metadata
     id="metadata1130">
    <rdf:RDF>
      <cc:Work
         rdf:about="">
        <dc:format>image/svg+xml</dc:format>
        <dc:type
           rdf:resource="http://purl.org/dc/dcmitype/StillImage" />
        <dc:title></dc:title>
      </cc:Work>
    </rdf:RDF>
  </metadata>
  <g
     inkscape:label="Layer 1"
     inkscape:groupmode="layer"
     id="layer1"
     transform="translate(-6.1364582,-278.00416)">
    <g
       id="g118"
       transform="matrix(0.35277777,0,0,0.35277777,-96.707434,197.42055)"
       style="fill:#00b050;fill-opacity:1">
      <g
         clip-path="url(#clipPath124)"
         id="g120"
         style="fill:#00b050;fill-opacity:1">
        <g
           id="g126"
           style="fill:#00b050;fill-opacity:1">
          <g
             clip-path="url(#clipPath132)"
             id="g128"
             style="fill:#00b050;fill-opacity:1">
            <g
               id="g134"
               style="fill:#00b050;fill-opacity:1">
              <path
                 inkscape:connector-curvature="0"
                 id="path136"
                 style="fill:#00b050;fill-opacity:1;fill-rule:evenodd;stroke:none"
                 d="m 309.511,237.418 c 0,4.967 -4.027,8.993 -8.993,8.993 -4.966,0 -8.992,-4.026 -8.992,-8.993 0,-4.966 4.026,-8.992 8.992,-8.992 4.966,0 8.993,4.026 8.993,8.992" />
            </g>
            <g
               id="g138"
               style="fill:#00b050;fill-opacity:1">
              <path
                 inkscape:connector-curvature="0"
                 id="path140"
                 style="fill:#00b050;fill-opacity:1;fill-rule:nonzero;stroke:none"
                 d="m 340.763,229.828 -25.237,6.3 v 7.215 l 4.987,1.253 0.518,2.212 c -0.493,0.183 -0.938,0.472 -1.305,0.848 l -7.283,7.275 h -3.375 c -1.634,-4.695 -6.763,-7.176 -11.458,-5.542 -3.544,1.233 -5.951,4.535 -6.039,8.287 v 21.75 h 17.955 v -16.995 h 4.5 c 0.995,0.001 1.95,-0.393 2.655,-1.095 l 8.377,-8.378 c 0.915,-0.929 1.281,-2.267 0.968,-3.532 l 2.25,0.555 h 0.307 c 0.345,-0.003 0.671,-0.157 0.893,-0.42 l 1.987,-2.325 9.293,2.325 c 0.482,0.075 0.935,-0.254 1.011,-0.737 0.004,-0.025 0.007,-0.049 0.009,-0.073 v -18.158 c -0.011,-0.447 -0.382,-0.801 -0.829,-0.79 -0.062,0.001 -0.124,0.01 -0.184,0.025 z m -12.315,18.495 -3.667,-0.892 c -0.596,-0.497 -1.334,-0.794 -2.108,-0.848 l -0.352,-1.582 7.41,1.815 -1.283,1.507" />
            </g>
            <g
               id="g142"
               style="fill:#00b050;fill-opacity:1">
              <path
                 inkscape:connector-curvature="0"
                 id="path144"
                 style="fill:#00b050;fill-opacity:1;fill-rule:nonzero;stroke:none"
                 d="m 312.931,242.833 c 0.604,0 1.095,-0.49 1.095,-1.095 v -4.5 c 0,-0.605 -0.491,-1.095 -1.095,-1.095 -0.605,0 -1.095,0.49 -1.095,1.095 v 4.5 c 0,0.605 0.49,1.095 1.095,1.095" />
            </g>
          </g>
        </g>
      </g>
    </g>
  </g>
</svg>
