<?xml version="1.0" encoding="UTF-8" standalone="no"?>
<!-- Uploaded to: SVG Repo, www.svgrepo.com, Generator: SVG Repo Mixer Tools -->

<svg
   fill="#000000"
   version="1.1"
   id="Capa_1"
   width="83.149605"
   height="83.014076"
   viewBox="0 0 12.752967 12.73218"
   xml:space="preserve"
   sodipodi:docname="picto_team.svg"
   inkscape:version="1.1.1 (c3084ef, 2021-09-22)"
   xmlns:inkscape="http://www.inkscape.org/namespaces/inkscape"
   xmlns:sodipodi="http://sodipodi.sourceforge.net/DTD/sodipodi-0.dtd"
   xmlns="http://www.w3.org/2000/svg"
   xmlns:svg="http://www.w3.org/2000/svg"><defs
   id="defs1311" /><sodipodi:namedview
   id="namedview1309"
   pagecolor="#ffffff"
   bordercolor="#666666"
   borderopacity="1.0"
   inkscape:pageshadow="2"
   inkscape:pageopacity="0.0"
   inkscape:pagecheckerboard="0"
   showgrid="false"
   fit-margin-top="0"
   fit-margin-left="0"
   fit-margin-right="0"
   fit-margin-bottom="0"
   inkscape:zoom="2.7"
   inkscape:cx="46.111111"
   inkscape:cy="88.518519"
   inkscape:window-width="1296"
   inkscape:window-height="762"
   inkscape:window-x="0"
   inkscape:window-y="25"
   inkscape:window-maximized="0"
   inkscape:current-layer="Capa_1" />
<g
   id="g1306"
   transform="matrix(0.10393701,0,0,0.10393701,0,-0.01039364)"
   style="fill:#00b050;fill-opacity:1">
	<circle
   cx="19.5"
   cy="12.2"
   r="12.1"
   id="circle1294"
   style="fill:#00b050;fill-opacity:1" />
	<path
   d="m 6,66.699 h 1.2 v 24 c 0,3.301 2.7,6 6,6 h 12.6 c 3.3,0 6,-2.699 6,-6 V 89.3 C 30.7,87.199 30,84.8 30,82.3 V 50.9 c 0,-6.1 3.7,-11.4 9,-13.7 v -2.4 c 0,-3.3 -2.7,-6 -6,-6 H 6 c -3.3,0 -6,2.7 -6,6 v 25.9 c 0,3.3 2.6,5.999 6,5.999 z"
   id="path1296"
   style="fill:#00b050;fill-opacity:1" />
	<circle
   cx="103.3"
   cy="12.2"
   r="12.1"
   id="circle1298"
   style="fill:#00b050;fill-opacity:1" />
	<path
   d="m 83.699,34.7 v 2.4 c 5.301,2.3 9,7.6 9,13.7 v 31.3 c 0,2.5 -0.6,4.9 -1.799,7 v 1.4 c 0,3.3 2.699,6 6,6 h 12.6 c 3.3,0 6,-2.7 6,-6 v -24 h 1.199 c 3.301,0 6,-2.7 6,-6 V 34.7 c 0,-3.3 -2.699,-6 -6,-6 h -27 c -3.299,0 -6,2.699 -6,6 z"
   id="path1300"
   style="fill:#00b050;fill-opacity:1" />
	<path
   d="m 39.1,50.899 v 0 9.8 21.6 c 0,3.3 2.7,6 6,6 h 2.3 v 28.3 c 0,3.3 2.7,6 6,6 h 16.1 c 3.3,0 6,-2.7 6,-6 v -28.4 h 2.3 c 3.3,0 6,-2.699 6,-6 V 60.7 v -9.8 0 c 0,-3.3 -2.7,-6 -6,-6 H 45.1 c -3.4,-10e-4 -6,2.7 -6,5.999 z"
   id="path1302"
   style="fill:#00b050;fill-opacity:1" />
	<circle
   cx="61.400002"
   cy="26"
   r="13.9"
   id="circle1304"
   style="fill:#00b050;fill-opacity:1" />
</g>
</svg>
