<?xml version="1.0" encoding="UTF-8" standalone="no"?>
<svg
   xmlns:dc="http://purl.org/dc/elements/1.1/"
   xmlns:cc="http://creativecommons.org/ns#"
   xmlns:rdf="http://www.w3.org/1999/02/22-rdf-syntax-ns#"
   xmlns:svg="http://www.w3.org/2000/svg"
   xmlns="http://www.w3.org/2000/svg"
   xmlns:sodipodi="http://sodipodi.sourceforge.net/DTD/sodipodi-0.dtd"
   xmlns:inkscape="http://www.inkscape.org/namespaces/inkscape"
   width="734.63831pt"
   height="172.66721pt"
   viewBox="0 0 734.63831 172.66721"
   version="1.2"
   id="svg12"
   sodipodi:docname="signal_background.svg"
   inkscape:version="0.92.3 (2405546, 2018-03-11)">
  <metadata
     id="metadata16">
    <rdf:RDF>
      <cc:Work
         rdf:about="">
        <dc:format>image/svg+xml</dc:format>
        <dc:type
           rdf:resource="http://purl.org/dc/dcmitype/StillImage" />
        <dc:title></dc:title>
      </cc:Work>
    </rdf:RDF>
  </metadata>
  <sodipodi:namedview
     pagecolor="#ffffff"
     bordercolor="#666666"
     borderopacity="1"
     objecttolerance="10"
     gridtolerance="10"
     guidetolerance="10"
     inkscape:pageopacity="0"
     inkscape:pageshadow="2"
     inkscape:window-width="1533"
     inkscape:window-height="845"
     id="namedview14"
     showgrid="false"
     inkscape:zoom="0.73327706"
     inkscape:cx="610.74153"
     inkscape:cy="138.37152"
     inkscape:window-x="67"
     inkscape:window-y="27"
     inkscape:window-maximized="1"
     inkscape:current-layer="svg12"
     fit-margin-top="0"
     fit-margin-left="0"
     fit-margin-right="0"
     fit-margin-bottom="0" />
  <defs
     id="defs5">
    <clipPath
       id="clip1">
      <path
         d="M 0,0 H 1321.7539 V 296.95312 H 0 Z m 0,0"
         id="path2"
         inkscape:connector-curvature="0" />
    </clipPath>
  </defs>
  <g
     id="surface479"
     style="stroke-width:4.5;stroke-miterlimit:100;stroke-dasharray:none"
     transform="matrix(1.4897856,0,0,0.99407481,-1234.4916,-58.854089)">
    <g
       clip-path="url(#clip1)"
       id="g9"
       style="clip-rule:nonzero;stroke-width:4.5;stroke-miterlimit:100;stroke-dasharray:none">
      <path
         style="fill:none;stroke:#353530;stroke-width:4.5;stroke-linecap:square;stroke-linejoin:round;stroke-miterlimit:100;stroke-dasharray:none;stroke-opacity:1"
         d="m 831.70312,148.41202 1.46875,2.59765 1.46485,-18.30859 1.47265,-9.58594 1.45704,20.88672 1.47656,35.26172 1.46484,10.23828 1.46485,-30.89453 1.46484,-42.69531 1.46484,-12.26172 2.9336,49.66797 1.46875,-5.6836 1.46484,-25.69921 1.46484,-6.29688 1.46485,29.42188 1.47656,34.8125 1.45703,-2.23047 1.47266,-41.94141 1.46484,-37.078124 1.46875,11.347654 1.46485,50.73828 1.46484,34.4375 1.46875,-22.36718 1.46484,-56.95703 1.46485,-30.738287 1.46875,27.499997 1.46484,56.73047 1.46484,30.66016 1.47266,-19.79688 1.46875,-43.83593 1.46484,-22.74219 1.46485,12.83984 1.46484,17.10547 1.46875,-15.66016 1.46485,-38.195308 1.46875,-7.710937 1.46484,51.941405 1.46484,48.51063 1.46485,17.98457 1.46875,-21.71333 1.47265,-50.58656 1.46485,-26.6914 1.46484,16.16797 1.46875,29.24218 1.46484,14.35938 1.46485,-7.52344 2.93359,-46.41797 1.46485,-11.152342 1.46484,8.050782 1.46875,21.51172 2.93359,51.41797 1.46875,21.09765 1.46875,7.48047 1.46485,-17.19531 1.46875,-42.8125 1.46484,-48.964844 1.46484,-22.832031 1.46485,21.246093 1.46875,49.183592 1.46484,40.51172 1.46485,7.26563 1.46875,-23.59766 1.46484,-35.69531 1.46484,-27.78125 1.47266,-7.238284 1.46875,11.437504 1.46484,13.55078 1.46485,0.64843 1.46875,-6.90625 1.46484,6.95313 1.46484,33.47266 1.46485,47.30468 1.46875,31.29297 1.46484,-8.09765 1.46485,-44.46485 1.46875,-52.07031 1.47265,-29.4375 1.46485,-0.85938 1.46875,9.6875 1.46484,2.71094 1.46484,-2.68359 1.46485,4.66016 1.46484,14.78515 1.46875,11.16016 1.46484,-7.0625 1.46875,-21.82813 1.46485,-13.113279 1.47265,21.808599 c 4.82347,92.18141 4.42736,121.16001 7.32813,23.55859 L 972.5,89.779206 l 1.46484,-10.089844 2.9336,26.398438 1.46484,10.76172 1.46484,18.9375 1.46485,21.08594 1.47656,4.38671 1.46484,-19.24218 1.46485,-26.32813 1.46875,-7.85156 1.46484,21.12891 1.46485,35.21875 1.46875,22.14843 1.46484,-6.55468 2.92969,-53.66016 1.46875,-5.27734 1.46484,18.58984 1.46487,26.43359 1.4765,10.56641 1.4649,-16.39453 1.4648,-30.32031 1.4649,-18.03516 1.4687,8.58203 1.4649,23.14844 1.4687,11.60547 1.4649,-12.38282 1.4648,-22.36718 1.4648,-8.56641 1.4649,11.88281 1.4687,15.45703 1.4727,-0.20703 1.4648,-13.21484 1.4649,-4.125 1.4687,18.4375 1.4649,27.88281 1.4687,15.90235 1.4649,3.63671 1.4648,7.78516 1.4649,11.28125 1.4648,-12.35547 1.4688,-52.36328 c 2.5633,-44.634598 3.5037,-69.68142 5.871,-30.98437 l 1.4649,28.77734 1.4687,8.07812 1.4649,-4.67578 1.4648,-10.68359 1.4649,-6.81641 1.4687,11.06641 1.4649,28.76172 1.4648,25.10937 1.4688,2.80078 2.9296,-27.54687 1.4727,-9.03906 1.4687,-14.15235 1.4649,-21.64843 1.4648,-15.42579 1.4688,4.33985 1.4648,19.1289 1.4649,14.98438 1.4687,-1.59766 1.4649,-13.45703 1.4648,-11.33203 1.4688,1.26563 1.4648,14.73046 1.4648,20.63282 1.4727,15.89453 1.4688,3.27734 1.4648,-11.57422 1.4648,-20.27343 1.4649,-12.37891 1.4687,10.80469 1.4649,25.37109 1.4687,7.78125 1.4649,-28.40234 1.4648,-40.77735 1.4727,-10.351559 1.457,32.886719 1.4766,45.29297 1.4648,16.95312 1.4649,-23.57422 1.4648,-41.4375 1.4688,-24.988277 1.4648,9.425777 1.4687,32.58985 1.4649,24.61328 1.4648,-7.37109 1.4649,-31.08985 1.4687,-18.88281 1.4727,18.66016 1.457,39.5 1.4766,19.54296 1.4648,-16.19531 1.4649,-26.49609 1.4648,-6.71875 1.4688,11.36328 1.4648,6.25391 1.4648,-9.52344 1.4688,-12.75781 1.4648,1.10937 1.4649,15.57422 1.4648,10.39453 1.4766,-17.45703 c 3.2903,-119.657914 5.825,-9.62973 7.3281,60.16406 l 1.4688,21.67969 1.4648,-26.92578 1.4649,-38.41016 1.4648,-15.03125 1.4687,5.57031 1.4649,-1.88671 2.9375,-42.55469 1.4648,3.59375 1.4688,23.54297 1.4648,18.13281 1.4688,1.37109 1.4648,-2.30468 1.4649,7.14843 1.4648,10.30469 1.4688,-1.71484 1.4648,-18.13672 1.4688,-25.58203 1.4648,-21.378909 1.4726,-9.019531 1.4571,9.519531 1.4805,31.394529 1.4609,47.00781 1.4726,42.07032 1.4571,8.875 1.4726,-39.63672 1.461,-68.79297 1.457,-50.199219 1.4766,3.375 2.9375,92.589839 1.4609,19.14844 1.4688,-7.14453 1.4609,-20.08594 2.9336,-48.39453 1.4726,-10.312498 1.4571,9.492188 1.4726,20 1.4688,14.11719 1.4726,4.32422 1.461,6.27343 1.4687,18.19532 1.461,22.32812 1.4726,5.07031 1.457,-26.17968 1.4766,-46.35938 1.457,-35.570312 1.4805,-0.253906 2.9336,62.699218 1.457,7.17969 1.4727,-21.625 1.4609,-31.53125 1.4727,-14.527345 1.457,20.316405 2.9414,99.33984 1.4727,9.03907 1.457,-44.6875 1.4609,-65.85547 1.4727,-31.832033 1.457,25.703123 1.4766,49.73828 1.457,22.10938 1.4727,-17.5 1.4609,-24.1211 1.4766,-0.91015 1.4609,14.96875 1.4727,4.39844 1.4609,-15.89844 1.4727,-21.5625 1.457,-8.19922 1.4727,10.96484 2.9414,44.64844 1.4609,12.17188 1.4688,-3.53516 1.4609,-19.10156 1.4726,-25.42188 1.461,-15.94531 1.4726,4.11719 2.9297,38.85547 1.461,7.83984 1.4804,-4.08594 1.4571,-9.40234 1.4726,-6.54297 1.461,2.53125 1.4726,9.32812 1.457,3.02735 1.4766,-14.01172 1.457,-23.38672 1.461,-12.78125 1.4765,6.58985 1.461,15.19921 1.4726,10.5586 1.4571,5.55078 1.4765,7.0039 1.4571,8.45313 1.4726,2.83203 1.4609,-7.30859 1.4727,-12.63672 1.4649,-6.90235 1.4726,5.01563 1.4609,9.60937 1.4727,-0.53125 2.9297,-29.89453 1.4609,7.59766 1.4727,32.02734 1.4609,26.97266 1.4766,-14.80078 1.4609,-56.30469 1.4727,-49.710937 1.4609,4.460938 2.9336,100.769529 1.4688,13.77735 1.4609,-10.44922 1.4726,-11.69922 2.9375,-16.03125 1.461,-4.05469 1.4726,2.22656"
         transform="matrix(1,0,0,-1,0,296.95499)"
         id="path7"
         inkscape:connector-curvature="0"
         sodipodi:nodetypes="ccccccccccccccccccccccccccccccccccccccccccccccccccccccccccccccccccccccccccccccccccccccccccccccccccccccccccccccccccccccccccccccccccccccccccccccccccccccccccccccccccccccccccccccccccccccccccccccccccccccccccccccccccccccccccccccccccccccccccccccccccccccccccccccccccccccccccccccccccccccccccccccccccccccccccccccccccc" />
    </g>
  </g>
</svg>
