<?xml version="1.0" encoding="UTF-8" standalone="no"?>
<svg
   xmlns:dc="http://purl.org/dc/elements/1.1/"
   xmlns:cc="http://creativecommons.org/ns#"
   xmlns:rdf="http://www.w3.org/1999/02/22-rdf-syntax-ns#"
   xmlns:svg="http://www.w3.org/2000/svg"
   xmlns="http://www.w3.org/2000/svg"
   viewBox="0 0 182.75 147.14584"
   height="147.14584"
   width="182.75"
   xml:space="preserve"
   id="svg2"
   version="1.1"><metadata
     id="metadata8"><rdf:RDF><cc:Work
         rdf:about=""><dc:format>image/svg+xml</dc:format><dc:type
           rdf:resource="http://purl.org/dc/dcmitype/StillImage" /><dc:title></dc:title></cc:Work></rdf:RDF></metadata><defs
     id="defs6"><clipPath
       id="clipPath20"
       clipPathUnits="userSpaceOnUse"><path
         id="path18"
         d="M 0,0 H 137.062 V 69.984 H 0 Z" /></clipPath><clipPath
       id="clipPath30"
       clipPathUnits="userSpaceOnUse"><path
         id="path28"
         d="M 0,0 H 138 V 111 H 0 Z" /></clipPath><clipPath
       id="clipPath40"
       clipPathUnits="userSpaceOnUse"><path
         id="path38"
         d="M 0,0 H 138 V 70 H 0 Z" /></clipPath><clipPath
       id="clipPath50"
       clipPathUnits="userSpaceOnUse"><path
         id="path48"
         d="M 0,0 H 138 V 111 H 0 Z" /></clipPath><clipPath
       id="clipPath64"
       clipPathUnits="userSpaceOnUse"><path
         id="path62"
         d="m 0,57 h 137.062 v 53.359 L 0,110.359 Z" /></clipPath><clipPath
       id="clipPath74"
       clipPathUnits="userSpaceOnUse"><path
         id="path72"
         d="M 0,0 H 138 V 111 H 0 Z" /></clipPath><clipPath
       id="clipPath84"
       clipPathUnits="userSpaceOnUse"><path
         id="path82"
         d="m 0,57 h 138 v 54 H 0 Z" /></clipPath><clipPath
       id="clipPath94"
       clipPathUnits="userSpaceOnUse"><path
         id="path92"
         d="M 0,0 H 138 V 111 H 0 Z" /></clipPath></defs><g
     transform="scale(1.3333333)"
     id="g10"><g
       id="g12" /><g
       id="g14"><g
         clip-path="url(#clipPath20)"
         id="g16"><g
           id="g22"><g
             id="g24"><g
               clip-path="url(#clipPath30)"
               id="g26"><g
                 id="g32" /><g
                 id="g34"><g
                   clip-path="url(#clipPath40)"
                   id="g36"><g
                     id="g42"><g
                       id="g44"><g
                         clip-path="url(#clipPath50)"
                         id="g46"><g
                           id="g52"><g
                             transform="scale(1,-1)"
                             id="g54"><path
                               id="path56"
                               style="fill:none;stroke:#353530;stroke-width:1;stroke-linecap:round;stroke-linejoin:round;stroke-miterlimit:10;stroke-dasharray:none;stroke-opacity:1"
                               d="m 136.562,-68.531 c 0,18.043 -7.167,35.347 -19.925,48.105 C 103.879,-7.668 86.574,-0.5 68.531,-0.5 50.488,-0.5 33.184,-7.668 20.426,-20.426 7.668,-33.184 0.5,-50.488 0.5,-68.531" /></g></g></g></g></g></g></g></g></g></g></g></g><g
       id="g58"><g
         clip-path="url(#clipPath64)"
         id="g60"><g
           id="g66"><g
             id="g68"><g
               clip-path="url(#clipPath74)"
               id="g70"><g
                 id="g76" /><g
                 id="g78"><g
                   clip-path="url(#clipPath84)"
                   id="g80"><g
                     id="g86"><g
                       id="g88"><g
                         clip-path="url(#clipPath94)"
                         id="g90"><g
                           id="g96"><g
                             transform="scale(1,-1)"
                             id="g98"><path
                               id="path100"
                               style="fill:none;stroke:#353530;stroke-width:1;stroke-linecap:round;stroke-linejoin:round;stroke-miterlimit:10;stroke-dasharray:none;stroke-opacity:1"
                               d="M 34.516,-68.531 C 19.918,-83.129 0.5,-80.887 0.5,-68.531 c 0,12.441 19.742,15.183 34.016,0 19.574,-20.821 40.226,-45.168 68.031,-40.821 19.82,3.102 34.015,20.625 34.015,40.821" /></g></g></g></g></g></g></g></g></g></g></g></g><g
       id="g102"><g
         id="g104"><path
           id="path106"
           style="fill:none;stroke:#353530;stroke-width:0.80000001;stroke-linecap:butt;stroke-linejoin:miter;stroke-miterlimit:4;stroke-dasharray:none;stroke-opacity:1"
           d="M 59.219,32.32 C 75.996,37.625 87.84,51.121 91.512,66.23" /></g><path
         id="path108"
         style="fill:#353530;fill-opacity:1;fill-rule:nonzero;stroke:none"
         d="m 61.383,32.336 c 0,1.105 -0.895,2 -2,2 -1.106,0 -2,-0.895 -2,-2 0,-1.106 0.894,-2 2,-2 1.105,0 2,0.894 2,2 z" /><path
         id="path110"
         style="fill:#353530;fill-opacity:1;fill-rule:nonzero;stroke:none"
         d="m 93.16,66.023 c 0,1.106 -0.894,2 -2,2 -1.105,0 -2,-0.894 -2,-2 0,-1.105 0.895,-2 2,-2 1.106,0 2,0.895 2,2 z" /><path
         id="path112"
         style="fill:#353530;fill-opacity:1;fill-rule:nonzero;stroke:none"
         d="m 62.676,19.074 c 0.015,-0.062 0.031,-0.109 0.031,-0.187 0,-0.172 -0.172,-0.172 -0.297,-0.172 l -1.109,0.859 c -0.547,-0.609 -1.36,-0.859 -2.188,-0.859 -3.859,0 -5.968,2.937 -5.968,5.375 0,2.265 1.812,3.234 3.89,3.234 1.016,0 2.031,-0.312 2.938,-0.984 1.156,-0.86 1.375,-1.953 1.375,-2.016 0,-0.172 -0.172,-0.172 -0.282,-0.172 -0.218,0 -0.234,0.032 -0.296,0.235 -0.485,1.515 -2.047,2.375 -3.407,2.375 -0.734,0 -1.375,-0.172 -1.859,-0.547 -0.656,-0.5 -0.703,-1.313 -0.703,-1.625 0,-0.344 0.203,-2.578 1.375,-3.969 0.656,-0.766 1.812,-1.344 3.125,-1.344 1.453,0 2.062,1.11 2.062,2.157 0,0.125 -0.031,0.296 -0.031,0.421 0,0.172 0.156,0.172 0.328,0.172 0.266,0 0.266,-0.015 0.328,-0.265 z" /><path
         id="path114"
         style="fill:#353530;fill-opacity:1;fill-rule:nonzero;stroke:none"
         d="m 65.465,23.945 c 0,-0.172 -0.125,-0.312 -0.313,-0.312 -0.203,0 -0.437,0.203 -0.437,0.437 0,0.172 0.125,0.297 0.312,0.297 0.203,0 0.438,-0.187 0.438,-0.422 z m -1.156,2.922 -0.438,1.094 c -0.047,0.125 -0.078,0.219 -0.078,0.359 0,0.391 0.297,0.672 0.719,0.672 0.781,0 1.109,-1.109 1.109,-1.219 0,-0.078 -0.062,-0.109 -0.125,-0.109 -0.09,0 -0.109,0.063 -0.141,0.141 -0.171,0.64 -0.5,0.968 -0.828,0.968 -0.089,0 -0.187,-0.046 -0.187,-0.25 0,-0.203 0.062,-0.343 0.156,-0.593 0.078,-0.203 0.156,-0.422 0.25,-0.641 l 0.25,-0.641 c 0.063,-0.187 0.172,-0.437 0.172,-0.578 0,-0.39 -0.328,-0.672 -0.734,-0.672 -0.766,0 -1.11,1.11 -1.11,1.219 0,0.078 0.063,0.11 0.125,0.11 0.11,0 0.11,-0.047 0.141,-0.125 0.219,-0.766 0.578,-0.985 0.828,-0.985 0.109,0 0.187,0.047 0.187,0.266 0,0.078 -0.011,0.187 -0.089,0.437 z" /><path
         id="path116"
         style="fill:#353530;fill-opacity:1;fill-rule:nonzero;stroke:none"
         d="m 105.781,60.473 c 0.016,-0.063 0.031,-0.11 0.031,-0.188 0,-0.172 -0.171,-0.172 -0.296,-0.172 l -1.11,0.86 c -0.547,-0.61 -1.359,-0.86 -2.187,-0.86 -3.86,0 -5.969,2.938 -5.969,5.375 0,2.266 1.812,3.235 3.891,3.235 1.015,0 2.031,-0.313 2.937,-0.985 1.156,-0.859 1.375,-1.953 1.375,-2.015 0,-0.172 -0.172,-0.172 -0.281,-0.172 -0.219,0 -0.234,0.031 -0.297,0.234 -0.484,1.516 -2.047,2.375 -3.406,2.375 -0.735,0 -1.375,-0.172 -1.86,-0.547 -0.656,-0.5 -0.703,-1.312 -0.703,-1.625 0,-0.343 0.203,-2.578 1.375,-3.968 0.657,-0.766 1.813,-1.344 3.125,-1.344 1.453,0 2.063,1.109 2.063,2.156 0,0.125 -0.031,0.297 -0.031,0.422 0,0.172 0.156,0.172 0.332,0.172 0.261,0 0.261,-0.016 0.324,-0.266 z" /><path
         id="path118"
         style="fill:#353530;fill-opacity:1;fill-rule:nonzero;stroke:none"
         d="m 109.488,65.344 c 0,-0.156 -0.125,-0.313 -0.312,-0.313 -0.25,0 -0.453,0.235 -0.453,0.438 0,0.156 0.125,0.297 0.312,0.297 0.235,0 0.453,-0.219 0.453,-0.422 z m -1.672,5.359 c -0.125,0.5 -0.515,1.016 -1,1.016 -0.125,0 -0.25,-0.031 -0.265,-0.047 0.25,-0.11 0.281,-0.328 0.281,-0.406 0,-0.188 -0.141,-0.297 -0.312,-0.297 -0.219,0 -0.438,0.203 -0.438,0.469 0,0.296 0.297,0.5 0.75,0.5 0.484,0 1.359,-0.297 1.594,-1.266 l 0.719,-2.844 c 0.031,-0.094 0.046,-0.156 0.046,-0.281 0,-0.438 -0.359,-0.75 -0.812,-0.75 -0.844,0 -1.344,1.109 -1.344,1.219 0,0.078 0.063,0.109 0.125,0.109 0.078,0 0.094,-0.031 0.141,-0.141 0.25,-0.562 0.656,-0.968 1.047,-0.968 0.172,0 0.265,0.125 0.265,0.375 0,0.109 -0.015,0.234 -0.047,0.343 z" /><path
         id="path120"
         style="fill:#353530;fill-opacity:1;fill-rule:nonzero;stroke:none"
         d="m 22.031,82.742 c -1.687,0 -2.969,0.813 -3.453,1.36 -0.422,0.484 -0.453,0.828 -0.453,0.859 0,0.062 0.047,0.094 0.125,0.094 0.188,0 0.469,-0.172 0.562,-0.235 0.25,-0.156 0.282,-0.234 0.36,-0.453 0.156,-0.484 0.5,-0.906 2,-0.969 -0.219,2.688 -0.938,5.297 -1.938,7.797 -0.062,0.188 -0.062,0.203 -0.062,0.219 0,0.031 0.031,0.078 0.109,0.078 0.203,0 0.766,-0.265 0.907,-0.562 0.609,-1.469 1.593,-4.219 1.953,-7.532 h 0.625 c 1.453,0 2.859,0.563 2.859,1.75 0,0.891 -0.859,2.579 -3.187,2.641 -0.25,0.016 -0.376,0.016 -0.719,0.234 -0.203,0.141 -0.313,0.266 -0.313,0.344 0,0.078 0.078,0.078 0.235,0.078 2.171,0 5,-1.843 5,-3.812 0,-1.36 -1.625,-1.891 -3,-1.891 z" /><path
         id="path122"
         style="fill:#353530;fill-opacity:1;fill-rule:nonzero;stroke:none"
         d="m 31.062,93.805 c 0,-0.032 0,-0.063 -0.203,-0.266 -1.203,-1.203 -1.875,-3.172 -1.875,-5.609 0,-2.328 0.563,-4.328 1.954,-5.735 0.124,-0.109 0.124,-0.125 0.124,-0.172 0,-0.062 -0.062,-0.093 -0.109,-0.093 -0.156,0 -1.141,0.859 -1.719,2.031 -0.609,1.219 -0.89,2.484 -0.89,3.969 0,1.062 0.172,2.484 0.781,3.75 0.719,1.437 1.687,2.218 1.828,2.218 0.047,0 0.109,-0.031 0.109,-0.093 z" /><path
         id="path124"
         style="fill:#353530;fill-opacity:1;fill-rule:nonzero;stroke:none"
         d="m 37.738,82.898 c 0.016,-0.046 0.032,-0.109 0.032,-0.171 0,-0.125 -0.125,-0.125 -0.141,-0.125 -0.016,0 -0.594,0.046 -0.656,0.062 -0.203,0.016 -0.391,0.031 -0.594,0.047 -0.313,0.031 -0.391,0.031 -0.391,0.25 0,0.125 0.094,0.125 0.266,0.125 0.578,0 0.594,0.109 0.594,0.219 0,0.078 -0.016,0.172 -0.032,0.203 l -0.734,2.906 c -0.125,-0.312 -0.453,-0.781 -1.078,-0.781 -1.344,0 -2.797,1.734 -2.797,3.515 0,1.172 0.688,1.875 1.5,1.875 0.656,0 1.219,-0.515 1.547,-0.906 0.125,0.703 0.687,0.906 1.047,0.906 0.359,0 0.64,-0.218 0.859,-0.656 0.188,-0.406 0.36,-1.125 0.36,-1.172 0,-0.062 -0.047,-0.109 -0.125,-0.109 -0.11,0 -0.11,0.062 -0.157,0.234 -0.187,0.703 -0.406,1.453 -0.906,1.453 -0.344,0 -0.359,-0.312 -0.359,-0.546 0,-0.047 0,-0.297 0.078,-0.625 z m -2.422,6.579 c -0.062,0.203 -0.062,0.234 -0.218,0.453 -0.266,0.328 -0.797,0.843 -1.36,0.843 -0.484,0 -0.765,-0.437 -0.765,-1.14 0,-0.656 0.375,-2 0.609,-2.5 0.406,-0.844 0.969,-1.266 1.422,-1.266 0.797,0 0.953,0.985 0.953,1.078 0,0.016 -0.031,0.157 -0.047,0.188 z" /><path
         id="path126"
         style="fill:#353530;fill-opacity:1;fill-rule:nonzero;stroke:none"
         d="m 41.18,87.93 c 0,-0.922 -0.125,-2.391 -0.797,-3.782 -0.703,-1.437 -1.688,-2.218 -1.813,-2.218 -0.047,0 -0.109,0.031 -0.109,0.093 0,0.047 0,0.063 0.203,0.266 1.203,1.203 1.859,3.188 1.859,5.625 0,2.313 -0.562,4.313 -1.937,5.719 -0.125,0.109 -0.125,0.14 -0.125,0.172 0,0.062 0.062,0.093 0.109,0.093 0.157,0 1.141,-0.859 1.719,-2.031 0.609,-1.219 0.891,-2.515 0.891,-3.937 z" /></g></g></svg>